G04 start of page 8 for group -1 layer_idx 268435462 *
G04 Title: GigaShield, <virtual group> *
G04 Creator: pcb-rnd 3.1.4 *
G04 CreationDate: 2026-03-08 03:29:23 UTC *
G04 For: Alex *
G04 Format: Gerber/RS-274X *
G04 PCB-Dimensions: 610236 354331 *
G04 PCB-Coordinate-Origin: lower left *
%MOIN*%
%FSLAX25Y25*%
%LNGLOBAL_VIRTUAL_PDRILL_NONE*%
%ADD45C,0.0200*%
%ADD44C,0.0394*%
%ADD43C,0.1260*%
G54D43*X27559Y326772D03*
G54D44*X132461Y264409D03*
X142461D03*
X153622Y327441D03*
X152461Y264409D03*
X162461D03*
G54D45*X149296Y249835D03*
X157480Y260523D03*
G54D44*X169724Y74764D03*
G54D45*X128684Y150531D03*
X126264Y169583D03*
X149296Y174256D03*
X129114Y161913D03*
G54D44*X163622Y327441D03*
G54D45*X169265Y313083D03*
X169720Y273856D03*
X159531Y289817D03*
X159544Y285155D03*
X159133Y296431D03*
X158693Y301038D03*
G54D43*X27559Y27559D03*
G54D44*X179724Y74764D03*
X160000Y22953D03*
X157480Y59055D03*
X167480D03*
X177480D03*
X189724Y74764D03*
X170000Y22953D03*
X180000D03*
X187480Y59055D03*
X172461Y264409D03*
X173622Y327441D03*
G54D45*X175644Y297580D03*
G54D44*X182461Y264409D03*
X183622Y327441D03*
G54D45*X179304Y277721D03*
X194760Y249835D03*
X187960Y280920D03*
G54D44*X193622Y327441D03*
X203622D03*
X213622D03*
X223622D03*
X233622D03*
X243622D03*
X192461Y264409D03*
G54D45*X215713Y272828D03*
X212070Y256816D03*
X228465Y246966D03*
X200861Y297588D03*
X188921Y302978D03*
X200907Y304331D03*
G54D44*X253622Y327441D03*
G54D45*X242820Y294390D03*
X251335Y299508D03*
X246500Y301601D03*
X242772Y304563D03*
X251141Y287028D03*
X251234Y281594D03*
X251281Y272925D03*
G54D44*X263622Y327441D03*
G54D45*X271291Y314262D03*
X287414Y307417D03*
X271776Y319489D03*
X339609Y322723D03*
X334876Y300886D03*
X309123Y311959D03*
X260044Y322064D03*
X269986Y300669D03*
X330125Y319211D03*
X330163Y314533D03*
X352192Y297174D03*
X347012Y298327D03*
X361962Y313518D03*
X357355Y313088D03*
X368341Y312181D03*
X343637Y312240D03*
X358622Y321870D03*
X371964Y235557D03*
X365622Y246696D03*
X363643Y238380D03*
X264596Y284029D03*
X265140Y279383D03*
X263446Y291209D03*
X309123Y289340D03*
X316966Y292792D03*
X349035Y290650D03*
X352485Y285628D03*
X406644Y276988D03*
G54D44*X273622Y327441D03*
G54D45*X299806Y270866D03*
G54D44*X283622Y327441D03*
X293622D03*
X303622D03*
X313622D03*
X323622D03*
X333622D03*
X343622D03*
X353622D03*
X363622D03*
X373622D03*
X383622D03*
X393622D03*
X403622D03*
G54D45*X286209Y160411D03*
X291347Y151240D03*
X266530Y169583D03*
X272849Y174256D03*
X299015Y162364D03*
G54D44*X190000Y22953D03*
X197480Y59055D03*
X207480D03*
X217480D03*
X227480D03*
G54D45*X225400Y48352D03*
G54D44*X237480Y59055D03*
X247480D03*
G54D45*X263459Y51659D03*
X298876Y53655D03*
X288333Y43152D03*
X305798Y90174D03*
X307232Y109025D03*
X369676Y111274D03*
X368708Y123126D03*
X352841Y119747D03*
X365038Y117444D03*
X390328Y119906D03*
X378257Y128731D03*
X365134Y129178D03*
X338131Y133430D03*
X352919Y130519D03*
X378716Y141255D03*
X393308Y138563D03*
X367570Y168211D03*
X376292Y179326D03*
X363642Y179185D03*
X352571Y184811D03*
X387050Y185530D03*
X354572Y151843D03*
X335937Y40096D03*
X331169Y95705D03*
X380064Y80946D03*
X387772Y83089D03*
X369483Y48663D03*
X380964Y57295D03*
X320762Y61621D03*
X317515Y86985D03*
X312120Y122736D03*
X316453Y117618D03*
X316819Y133784D03*
G54D43*X582677Y326772D03*
G54D44*X569803Y253937D03*
Y243937D03*
X579803Y253937D03*
Y243937D03*
X569803Y233937D03*
Y223937D03*
Y213937D03*
Y203937D03*
Y193937D03*
Y183937D03*
Y173937D03*
Y163937D03*
Y153937D03*
Y143937D03*
Y133937D03*
Y123937D03*
Y113937D03*
Y103937D03*
X579803Y113937D03*
Y103937D03*
G54D43*X582677Y27559D03*
G54D44*X569803Y93937D03*
Y83937D03*
X579803Y93937D03*
Y83937D03*
G54D45*X590103Y75060D03*
G54D44*X579803Y143937D03*
Y133937D03*
Y123937D03*
Y173937D03*
Y163937D03*
Y153937D03*
Y203937D03*
Y193937D03*
Y183937D03*
Y233937D03*
Y223937D03*
Y213937D03*
G54D45*X559318Y88881D03*
X550362Y116395D03*
X559800Y207507D03*
X557078Y198067D03*
X555250Y225689D03*
X555910Y73625D03*
X553650Y173270D03*
X562089Y166509D03*
X561298Y185365D03*
G54D44*X202461Y264409D03*
X212461D03*
X222461D03*
X299665Y264291D03*
X289665D03*
X279665D03*
X309665D03*
X327283Y264094D03*
X337283D03*
X347283D03*
X357283D03*
X367283D03*
X377283D03*
X387283D03*
X397283D03*
X428701Y265039D03*
Y255039D03*
Y245039D03*
Y235039D03*
Y225039D03*
Y215039D03*
Y205039D03*
G54D45*X413493Y208636D03*
X415445Y203707D03*
G54D44*X428701Y195039D03*
Y185039D03*
Y175039D03*
Y165039D03*
Y155039D03*
Y145039D03*
Y135039D03*
Y125039D03*
Y115039D03*
Y105039D03*
Y95039D03*
X269665Y264291D03*
X438701Y265039D03*
Y255039D03*
Y245039D03*
Y235039D03*
Y225039D03*
Y215039D03*
Y205039D03*
G54D45*X472191Y204788D03*
X450622Y210394D03*
X493770Y209400D03*
X476900Y213061D03*
X458222Y215188D03*
X504036Y222247D03*
X478569Y228447D03*
X458803Y229405D03*
X499446Y201427D03*
X505984Y212993D03*
X516995Y216333D03*
G54D44*X438701Y195039D03*
G54D45*X445039Y195043D03*
X483678Y200798D03*
X450770Y200709D03*
X543826Y194191D03*
X491428Y194057D03*
G54D44*X438701Y185039D03*
Y175039D03*
Y165039D03*
Y155039D03*
G54D45*X445148Y164144D03*
X456554Y152628D03*
X459904Y165732D03*
X468899Y158069D03*
X469485Y150668D03*
X484036Y165299D03*
X492637Y155741D03*
X480233Y148524D03*
X492203Y144691D03*
X502457Y160730D03*
X526750Y149028D03*
X522082Y149504D03*
X529651Y167097D03*
X529633Y160193D03*
X520991Y154130D03*
X516802Y190269D03*
G54D44*X438701Y145039D03*
Y135039D03*
Y125039D03*
Y115039D03*
Y105039D03*
Y95039D03*
G54D45*X451741Y99342D03*
X446067Y92419D03*
X458279Y88929D03*
X497686Y117323D03*
X505835Y121013D03*
X495398Y103569D03*
X502902Y106057D03*
X504875Y98572D03*
X479297Y78655D03*
X494207Y80413D03*
X494201Y90650D03*
X507387Y75295D03*
X474737D03*
G54D44*X259665Y264291D03*
X249665D03*
X239665D03*
X199724Y74764D03*
X209724D03*
X200000Y22953D03*
X210000D03*
X219724Y74764D03*
X220000Y22953D03*
X230000D03*
X240000D03*
X250000D03*
X260000D03*
X270000D03*
X280000D03*
X290000D03*
X300000D03*
X348937Y74764D03*
X358937D03*
X368937D03*
X378937D03*
X388937D03*
X398937D03*
X408937D03*
X418937D03*
G54D45*X414266Y27806D03*
X488468Y61327D03*
X481591Y71350D03*
X529659Y70177D03*
G54D44*X310000Y22953D03*
X320000D03*
X330000D03*
X340000D03*
X350000D03*
X360000D03*
X370000D03*
X380000D03*
X390000D03*
X400000D03*
X410000D03*
X229724Y74764D03*
X239724D03*
X259252D03*
X269252D03*
X279252D03*
X289252D03*
X299252D03*
X309252D03*
X319252D03*
X329252D03*
M02*
