G04 start of page 6 for group 1 layer_idx 4 *
G04 Title: GigaShield, top_silk *
G04 Creator: pcb-rnd 3.1.4 *
G04 CreationDate: 2026-03-08 03:29:23 UTC *
G04 For: Alex *
G04 Format: Gerber/RS-274X *
G04 PCB-Dimensions: 610236 354331 *
G04 PCB-Coordinate-Origin: lower left *
%MOIN*%
%FSLAX25Y25*%
%LNTOP_SILK_NONE_1*%
%ADD40C,0.0001*%
%ADD39C,0.0059*%
%ADD38C,0.0047*%
%ADD37C,0.0098*%
G54D37*X148622Y332441D02*Y322441D01*
G54D38*X190945Y319291D02*Y316142D01*
X167323Y319291D02*Y316142D01*
X173622Y319291D02*Y316142D01*
G54D37*X127461Y269409D02*Y259409D01*
G54D39*X173622Y309449D02*Y278740D01*
X190945D01*
G54D37*X227461Y269409D02*X127461D01*
G54D39*X190945Y278740D02*Y309449D01*
X173622D02*X190945D01*
G54D38*X198819Y275984D02*Y272835D01*
X205118Y275984D02*Y272835D01*
X197244Y319291D02*Y316142D01*
G54D37*X234665Y269291D02*Y259291D01*
G54D39*X261417Y305906D02*Y275197D01*
Y305906D02*X278740D01*
G54D38*Y315748D02*Y312598D01*
X255118Y315748D02*Y312598D01*
X261417Y315748D02*Y312598D01*
G54D37*X227461Y259409D02*Y269409D01*
G54D39*X261417Y275197D02*X278740D01*
Y305906D01*
G54D38*X285039Y315748D02*Y312598D01*
X286614Y272441D02*Y269291D01*
X292913Y272441D02*Y269291D01*
G54D37*X164724Y79764D02*Y69764D01*
X127461Y259409D02*X227461D01*
G54D39*X301575Y139370D02*X318898D01*
G54D38*Y149213D02*Y146063D01*
X295276Y149213D02*Y146063D01*
X301575Y149213D02*Y146063D01*
G54D39*Y139370D02*Y108661D01*
X318898D01*
Y139370D01*
G54D38*X325197Y149213D02*Y146063D01*
X386614Y148819D02*Y145669D01*
X356693Y148819D02*Y145669D01*
X362992Y148819D02*Y145669D01*
G54D39*Y138976D02*Y108268D01*
Y138976D02*X380315D01*
X362992Y108268D02*X380315D01*
G54D38*X326772Y105906D02*Y102756D01*
X333071Y105906D02*Y102756D01*
X388189Y105512D02*Y102362D01*
X394488Y105512D02*Y102362D01*
G54D39*X380315Y108268D02*Y138976D01*
G54D38*Y148819D02*Y145669D01*
G54D37*X148622Y322441D02*X408622D01*
G54D39*X344882Y309843D02*Y279134D01*
X362205D01*
X344882Y309843D02*X362205D01*
G54D37*X408622Y322441D02*Y332441D01*
G54D39*X362205Y279134D02*Y309843D01*
G54D38*Y319685D02*Y316535D01*
X368504Y319685D02*Y316535D01*
X338583Y319685D02*Y316535D01*
X344882Y319685D02*Y316535D01*
X370079Y276378D02*Y273228D01*
X376378Y276378D02*Y273228D01*
G54D37*X408622Y332441D02*X148622D01*
X443701Y270039D02*X423701D01*
X584803Y258937D02*X564803D01*
G54D38*X507087Y254724D02*Y251575D01*
X513386Y254724D02*Y251575D01*
X483465Y254724D02*Y251575D01*
X489764Y254724D02*Y251575D01*
G54D39*Y244882D02*Y214173D01*
Y244882D02*X507087D01*
G54D38*X506693Y208268D02*Y205118D01*
G54D37*X423701Y270039D02*Y90039D01*
G54D38*X483071Y208268D02*Y205118D01*
X489370Y208268D02*Y205118D01*
G54D39*X490157Y152362D02*Y121654D01*
G54D38*X483858Y162205D02*Y159055D01*
X490157Y162205D02*Y159055D01*
G54D39*Y121654D02*X507480D01*
Y152362D01*
X490157D02*X507480D01*
G54D38*Y162205D02*Y159055D01*
G54D39*X489370Y167717D02*X506693D01*
Y198425D01*
X489370D02*X506693D01*
G54D38*X485827Y109449D02*Y106299D01*
X492126Y109449D02*Y106299D01*
G54D39*X489370Y198425D02*Y167717D01*
X492126Y99606D02*X509449D01*
G54D38*Y109449D02*Y106299D01*
X515748Y109449D02*Y106299D01*
X515354Y118898D02*Y115748D01*
X521654Y118898D02*Y115748D01*
X512992Y208268D02*Y205118D01*
X513780Y162205D02*Y159055D01*
X514961Y211417D02*Y208268D01*
X521260Y211417D02*Y208268D01*
X514567Y164961D02*Y161811D01*
X520866Y164961D02*Y161811D01*
G54D37*X443701Y90039D02*Y270039D01*
G54D39*X489764Y214173D02*X507087D01*
Y244882D01*
X492126Y99606D02*Y68898D01*
X509449D01*
Y99606D01*
G54D37*X564803Y258937D02*Y78937D01*
X584803D02*Y258937D01*
X244724Y79764D02*X164724D01*
G54D38*X154331Y21260D02*Y18110D01*
X160630Y21260D02*Y18110D01*
G54D37*X164724Y69764D02*X244724D01*
X155000Y27953D02*Y17953D01*
G54D38*X213386Y21260D02*Y18110D01*
X219685Y21260D02*Y18110D01*
G54D37*X152480Y64055D02*Y54055D01*
X244724Y69764D02*Y79764D01*
G54D38*X272441Y21260D02*Y18110D01*
G54D37*X252480Y54055D02*Y64055D01*
X415000Y27953D02*X155000D01*
G54D38*X331496Y21260D02*Y18110D01*
X337795Y21260D02*Y18110D01*
X390551Y21260D02*Y18110D01*
X396850Y21260D02*Y18110D01*
G54D37*X152480Y54055D02*X252480D01*
Y64055D02*X152480D01*
X155000Y17953D02*X415000D01*
Y27953D01*
X343937Y79764D02*Y69764D01*
G54D38*X278740Y21260D02*Y18110D01*
G54D37*X423937Y69764D02*Y79764D01*
G54D38*X517323Y66142D02*Y62992D01*
X523622Y66142D02*Y62992D01*
G54D37*X423937Y79764D02*X343937D01*
G54D38*X36220Y21260D02*Y18110D01*
X42520Y21260D02*Y18110D01*
X95276Y21260D02*Y18110D01*
X101575Y21260D02*Y18110D01*
X449606Y21260D02*Y18110D01*
X455906Y21260D02*Y18110D01*
X508661Y21260D02*Y18110D01*
X514961Y21260D02*Y18110D01*
G54D37*X254252Y79764D02*Y69764D01*
X234665Y259291D02*X314665D01*
Y269291D01*
X234665D01*
X322283Y269094D02*Y259094D01*
X254252Y69764D02*X334252D01*
X343937D02*X423937D01*
X334252D02*Y79764D01*
X322283Y259094D02*X402283D01*
Y269094D01*
X322283D01*
X334252Y79764D02*X254252D01*
X423701Y90039D02*X443701D01*
X564803Y78937D02*X584803D01*
G54D40*G36*
X27559Y326772D02*X27559D01*
Y326771D01*
X27559D01*
Y326772D01*
G37*
G36*
X27559D02*X27559D01*
Y326771D01*
X27559D01*
Y326772D01*
G37*
G36*
X132461Y264409D02*X132461D01*
Y264409D01*
X132461D01*
Y264409D01*
G37*
G36*
X132461D02*X132461D01*
Y264409D01*
X132461D01*
Y264409D01*
G37*
G36*
X153622Y327441D02*X153622D01*
Y327441D01*
X153622D01*
Y327441D01*
G37*
G36*
X153622D02*X153622D01*
Y327441D01*
X153622D01*
Y327441D01*
G37*
G36*
X182283Y294094D02*X182284D01*
Y294094D01*
X182283D01*
Y294094D01*
G37*
G36*
X182284D02*X182284D01*
Y294094D01*
X182284D01*
Y294094D01*
G37*
G36*
X170472Y317717D02*X170473D01*
Y317716D01*
X170472D01*
Y317717D01*
G37*
G36*
X170473D02*X170473D01*
Y317716D01*
X170473D01*
Y317717D01*
G37*
G36*
X27559Y27559D02*X27559D01*
Y27559D01*
X27559D01*
Y27559D01*
G37*
G36*
X27559D02*X27559D01*
Y27559D01*
X27559D01*
Y27559D01*
G37*
G36*
X39370Y19685D02*X39370D01*
Y19685D01*
X39370D01*
Y19685D01*
G37*
G36*
X39370D02*X39371D01*
Y19685D01*
X39370D01*
Y19685D01*
G37*
G36*
X39371D02*X39371D01*
Y19685D01*
X39371D01*
Y19685D01*
G37*
G36*
X98425D02*X98425D01*
Y19685D01*
X98425D01*
Y19685D01*
G37*
G36*
X98425D02*X98426D01*
Y19685D01*
X98425D01*
Y19685D01*
G37*
G36*
X98426D02*X98426D01*
Y19685D01*
X98426D01*
Y19685D01*
G37*
G36*
X169724Y74764D02*X169725D01*
Y74764D01*
X169724D01*
Y74764D01*
G37*
G36*
X169725D02*X169725D01*
Y74764D01*
X169725D01*
Y74764D01*
G37*
G36*
X259252D02*X259252D01*
Y74764D01*
X259252D01*
Y74764D01*
G37*
G36*
X259252D02*X259252D01*
Y74764D01*
X259252D01*
Y74764D01*
G37*
G36*
X157480Y19685D02*X157481D01*
Y19685D01*
X157480D01*
Y19685D01*
G37*
G36*
X157481D02*X157481D01*
Y19685D01*
X157481D01*
Y19685D01*
G37*
G36*
X157481D02*X157481D01*
Y19685D01*
X157481D01*
Y19685D01*
G37*
G36*
X216535D02*X216536D01*
Y19685D01*
X216535D01*
Y19685D01*
G37*
G36*
X216536D02*X216536D01*
Y19685D01*
X216536D01*
Y19685D01*
G37*
G36*
X216536D02*X216536D01*
Y19685D01*
X216536D01*
Y19685D01*
G37*
G36*
X157480Y59055D02*X157481D01*
Y59055D01*
X157480D01*
Y59055D01*
G37*
G36*
X157481D02*X157481D01*
Y59055D01*
X157481D01*
Y59055D01*
G37*
G36*
X157481D02*X157481D01*
Y59055D01*
X157481D01*
Y59055D01*
G37*
G36*
X275591Y19685D02*X275591D01*
Y19685D01*
X275591D01*
Y19685D01*
G37*
G36*
X275591D02*X275591D01*
Y19685D01*
X275591D01*
Y19685D01*
G37*
G36*
X275591D02*X275591D01*
Y19685D01*
X275591D01*
Y19685D01*
G37*
G36*
X194094Y317717D02*X194095D01*
Y317716D01*
X194094D01*
Y317717D01*
G37*
G36*
X194095D02*X194095D01*
Y317716D01*
X194095D01*
Y317717D01*
G37*
G36*
X201969Y274409D02*X201969D01*
Y274409D01*
X201969D01*
Y274409D01*
G37*
G36*
X201969D02*X201969D01*
Y274409D01*
X201969D01*
Y274409D01*
G37*
G36*
X270079Y290551D02*X270079D01*
Y290551D01*
X270079D01*
Y290551D01*
G37*
G36*
X270079D02*X270079D01*
Y290551D01*
X270079D01*
Y290551D01*
G37*
G36*
X281890Y314173D02*X281890D01*
Y314173D01*
X281890D01*
Y314173D01*
G37*
G36*
X281890D02*X281890D01*
Y314173D01*
X281890D01*
Y314173D01*
G37*
G36*
X258268D02*X258268D01*
Y314173D01*
X258268D01*
Y314173D01*
G37*
G36*
X258268D02*X258268D01*
Y314173D01*
X258268D01*
Y314173D01*
G37*
G36*
X582677Y27559D02*X582677D01*
Y27559D01*
X582677D01*
Y27559D01*
G37*
G36*
X582677D02*X582678D01*
Y27559D01*
X582677D01*
Y27559D01*
G37*
G36*
X582677Y326772D02*X582677D01*
Y326771D01*
X582677D01*
Y326772D01*
G37*
G36*
X582677D02*X582678D01*
Y326771D01*
X582677D01*
Y326772D01*
G37*
G36*
X309665Y264291D02*X309666D01*
Y264291D01*
X309665D01*
Y264291D01*
G37*
G36*
X309666D02*X309666D01*
Y264291D01*
X309666D01*
Y264291D01*
G37*
G36*
X310236Y124016D02*X310236D01*
Y124016D01*
X310236D01*
Y124016D01*
G37*
G36*
X310236D02*X310237D01*
Y124016D01*
X310236D01*
Y124016D01*
G37*
G36*
X322047Y147638D02*X322047D01*
Y147638D01*
X322047D01*
Y147638D01*
G37*
G36*
X322047D02*X322048D01*
Y147638D01*
X322047D01*
Y147638D01*
G37*
G36*
X298425D02*X298425D01*
Y147638D01*
X298425D01*
Y147638D01*
G37*
G36*
X298425D02*X298426D01*
Y147638D01*
X298425D01*
Y147638D01*
G37*
G36*
X289764Y270866D02*X289764D01*
Y270866D01*
X289764D01*
Y270866D01*
G37*
G36*
X289764D02*X289764D01*
Y270866D01*
X289764D01*
Y270866D01*
G37*
G36*
X160000Y22953D02*X160000D01*
Y22953D01*
X160000D01*
Y22953D01*
G37*
G36*
X160000D02*X160000D01*
Y22953D01*
X160000D01*
Y22953D01*
G37*
G36*
X334646Y19685D02*X334646D01*
Y19685D01*
X334646D01*
Y19685D01*
G37*
G36*
X334646D02*X334646D01*
Y19685D01*
X334646D01*
Y19685D01*
G37*
G36*
X334646D02*X334646D01*
Y19685D01*
X334646D01*
Y19685D01*
G37*
G36*
X329921Y104331D02*X329921D01*
Y104331D01*
X329921D01*
Y104331D01*
G37*
G36*
X329921D02*X329922D01*
Y104331D01*
X329921D01*
Y104331D01*
G37*
G36*
X488976Y107874D02*X488977D01*
Y107874D01*
X488976D01*
Y107874D01*
G37*
G36*
X488977D02*X488977D01*
Y107874D01*
X488977D01*
Y107874D01*
G37*
G36*
X488977D02*X488977D01*
Y107874D01*
X488977D01*
Y107874D01*
G37*
G36*
X393701Y19685D02*X393701D01*
Y19685D01*
X393701D01*
Y19685D01*
G37*
G36*
X393701D02*X393701D01*
Y19685D01*
X393701D01*
Y19685D01*
G37*
G36*
X393701D02*X393701D01*
Y19685D01*
X393701D01*
Y19685D01*
G37*
G36*
X452756D02*X452756D01*
Y19685D01*
X452756D01*
Y19685D01*
G37*
G36*
X452756D02*X452756D01*
Y19685D01*
X452756D01*
Y19685D01*
G37*
G36*
X452756D02*X452757D01*
Y19685D01*
X452756D01*
Y19685D01*
G37*
G36*
X391339Y103937D02*X391339D01*
Y103937D01*
X391339D01*
Y103937D01*
G37*
G36*
X391339D02*X391339D01*
Y103937D01*
X391339D01*
Y103937D01*
G37*
G36*
X500787Y84252D02*X500788D01*
Y84252D01*
X500787D01*
Y84252D01*
G37*
G36*
X500788D02*X500788D01*
Y84252D01*
X500788D01*
Y84252D01*
G37*
G36*
X512598Y107874D02*X512599D01*
Y107874D01*
X512598D01*
Y107874D01*
G37*
G36*
X512599D02*X512599D01*
Y107874D01*
X512599D01*
Y107874D01*
G37*
G36*
X512599D02*X512599D01*
Y107874D01*
X512599D01*
Y107874D01*
G37*
G36*
X498819Y137008D02*X498819D01*
Y137008D01*
X498819D01*
Y137008D01*
G37*
G36*
X498819D02*X498819D01*
Y137008D01*
X498819D01*
Y137008D01*
G37*
G36*
X518504Y117323D02*X518504D01*
Y117323D01*
X518504D01*
Y117323D01*
G37*
G36*
X518504D02*X518504D01*
Y117323D01*
X518504D01*
Y117323D01*
G37*
G36*
X511811Y19685D02*X511811D01*
Y19685D01*
X511811D01*
Y19685D01*
G37*
G36*
X511811D02*X511811D01*
Y19685D01*
X511811D01*
Y19685D01*
G37*
G36*
X511811D02*X511812D01*
Y19685D01*
X511811D01*
Y19685D01*
G37*
G36*
X520472Y64567D02*X520473D01*
Y64567D01*
X520472D01*
Y64567D01*
G37*
G36*
X520473D02*X520473D01*
Y64567D01*
X520473D01*
Y64567D01*
G37*
G36*
X359843Y147244D02*X359843D01*
Y147244D01*
X359843D01*
Y147244D01*
G37*
G36*
X359843D02*X359843D01*
Y147244D01*
X359843D01*
Y147244D01*
G37*
G36*
X353543Y294488D02*X353544D01*
Y294488D01*
X353543D01*
Y294488D01*
G37*
G36*
X353544D02*X353544D01*
Y294488D01*
X353544D01*
Y294488D01*
G37*
G36*
X365354Y318110D02*X365355D01*
Y318110D01*
X365354D01*
Y318110D01*
G37*
G36*
X365355D02*X365355D01*
Y318110D01*
X365355D01*
Y318110D01*
G37*
G36*
X341732D02*X341732D01*
Y318110D01*
X341732D01*
Y318110D01*
G37*
G36*
X341733D02*X341733D01*
Y318110D01*
X341733D01*
Y318110D01*
G37*
G36*
X341733D02*X341733D01*
Y318110D01*
X341733D01*
Y318110D01*
G37*
G36*
X348937Y74764D02*X348937D01*
Y74764D01*
X348937D01*
Y74764D01*
G37*
G36*
X348937D02*X348937D01*
Y74764D01*
X348937D01*
Y74764D01*
G37*
G36*
X371654Y123622D02*X371654D01*
Y123622D01*
X371654D01*
Y123622D01*
G37*
G36*
X371654D02*X371654D01*
Y123622D01*
X371654D01*
Y123622D01*
G37*
G36*
X383465Y147244D02*X383465D01*
Y147244D01*
X383465D01*
Y147244D01*
G37*
G36*
X383465D02*X383465D01*
Y147244D01*
X383465D01*
Y147244D01*
G37*
G36*
X373228Y274803D02*X373229D01*
Y274803D01*
X373228D01*
Y274803D01*
G37*
G36*
X373229D02*X373229D01*
Y274803D01*
X373229D01*
Y274803D01*
G37*
G36*
X327283Y264094D02*X327284D01*
Y264094D01*
X327283D01*
Y264094D01*
G37*
G36*
X327284D02*X327284D01*
Y264094D01*
X327284D01*
Y264094D01*
G37*
G36*
X428701Y265039D02*X428701D01*
Y265039D01*
X428701D01*
Y265039D01*
G37*
G36*
X428701D02*X428701D01*
Y265039D01*
X428701D01*
Y265039D01*
G37*
G36*
X486614Y253150D02*X486614D01*
Y253149D01*
X486614D01*
Y253150D01*
G37*
G36*
X486614D02*X486615D01*
Y253149D01*
X486614D01*
Y253150D01*
G37*
G36*
X486615D02*X486615D01*
Y253149D01*
X486615D01*
Y253150D01*
G37*
G36*
X569803Y253937D02*X569803D01*
Y253937D01*
X569803D01*
Y253937D01*
G37*
G36*
X569803D02*X569804D01*
Y253937D01*
X569803D01*
Y253937D01*
G37*
G36*
X569804D02*X569804D01*
Y253937D01*
X569804D01*
Y253937D01*
G37*
G36*
X498425Y229528D02*X498425D01*
Y229527D01*
X498425D01*
Y229528D01*
G37*
G36*
X498425D02*X498426D01*
Y229527D01*
X498425D01*
Y229528D01*
G37*
G36*
X510236Y253150D02*X510236D01*
Y253149D01*
X510236D01*
Y253150D01*
G37*
G36*
X510236D02*X510237D01*
Y253149D01*
X510236D01*
Y253150D01*
G37*
G36*
X510237D02*X510237D01*
Y253149D01*
X510237D01*
Y253150D01*
G37*
G36*
X498031Y183071D02*X498032D01*
Y183071D01*
X498031D01*
Y183071D01*
G37*
G36*
X498032D02*X498032D01*
Y183071D01*
X498032D01*
Y183071D01*
G37*
G36*
X509843Y206693D02*X509843D01*
Y206693D01*
X509843D01*
Y206693D01*
G37*
G36*
X509843D02*X509843D01*
Y206693D01*
X509843D01*
Y206693D01*
G37*
G36*
X509843D02*X509843D01*
Y206693D01*
X509843D01*
Y206693D01*
G37*
G36*
X518110Y209843D02*X518110D01*
Y209842D01*
X518110D01*
Y209843D01*
G37*
G36*
X518110D02*X518111D01*
Y209842D01*
X518110D01*
Y209843D01*
G37*
G36*
X486220Y206693D02*X486221D01*
Y206693D01*
X486220D01*
Y206693D01*
G37*
G36*
X486221D02*X486221D01*
Y206693D01*
X486221D01*
Y206693D01*
G37*
G36*
X486221D02*X486221D01*
Y206693D01*
X486221D01*
Y206693D01*
G37*
G36*
X510630Y160630D02*X510630D01*
Y160630D01*
X510630D01*
Y160630D01*
G37*
G36*
X510630D02*X510630D01*
Y160630D01*
X510630D01*
Y160630D01*
G37*
G36*
X510630D02*X510631D01*
Y160630D01*
X510630D01*
Y160630D01*
G37*
G36*
X487008D02*X487008D01*
Y160630D01*
X487008D01*
Y160630D01*
G37*
G36*
X487008D02*X487008D01*
Y160630D01*
X487008D01*
Y160630D01*
G37*
G36*
X487008D02*X487009D01*
Y160630D01*
X487008D01*
Y160630D01*
G37*
G36*
X517717Y163386D02*X517717D01*
Y163386D01*
X517717D01*
Y163386D01*
G37*
G36*
X517717D02*X517717D01*
Y163386D01*
X517717D01*
Y163386D01*
G37*
M02*
