G04 start of page 2 for group 3 layer_idx 0 *
G04 Title: GigaShield, top_copper *
G04 Creator: pcb-rnd 3.1.4 *
G04 CreationDate: 2026-03-08 03:29:23 UTC *
G04 For: Alex *
G04 Format: Gerber/RS-274X *
G04 PCB-Dimensions: 610236 354331 *
G04 PCB-Coordinate-Origin: lower left *
%MOIN*%
%FSLAX25Y25*%
%LNTOP_COPPER_NONE_3*%
%ADD19C,0.0200*%
%ADD18C,0.0394*%
%ADD17C,0.1260*%
%ADD16C,0.0157*%
%ADD15C,0.0360*%
%ADD14C,0.0669*%
%ADD13C,0.0001*%
%ADD12C,0.1969*%
%ADD11C,0.0100*%
G54D11*X173622Y327441D02*X181935Y319128D01*
X173425Y317244D02*X169265Y313083D01*
X175885Y321078D02*X170881D01*
X178769Y325431D02*Y329169D01*
X178573Y329364D01*
X177058Y319905D02*X175885Y321078D01*
X184974Y319226D02*X178769Y325431D01*
X181935Y319128D02*Y305259D01*
X173425Y317717D02*Y317244D01*
X177058Y304693D02*Y319905D01*
X173015Y305610D02*X169685D01*
X175642Y332295D02*X171276D01*
X168622Y329641D01*
Y323337D01*
X170881Y321078D01*
X167520Y317717D02*X170881Y321078D01*
X169685Y295374D02*X172974D01*
X174514Y293833D01*
X169685Y300492D02*X172732D01*
X175644Y297580D01*
X181935Y305259D02*X191820Y295374D01*
X194882Y304331D02*Y303051D01*
X191407Y300492D02*X188921Y302978D01*
X194882Y304331D02*X200907D01*
X194882Y300492D02*X191407D01*
X194882Y297933D02*X200516D01*
X200861Y297588D01*
X194882Y305610D02*Y304331D01*
X198240Y305610D02*X194882D01*
X191495Y290256D02*X177058Y304693D01*
X187960Y290665D02*X173015Y305610D01*
X190068Y320995D02*X183622Y327441D01*
X204283Y316780D02*X193622Y327441D01*
X194882Y308169D02*X184974Y318077D01*
Y319226D01*
X191142Y317717D02*X199729Y309130D01*
Y307099D01*
X198240Y305610D01*
X213622Y299775D02*Y327441D01*
X206289Y295302D02*Y324774D01*
X204283Y296319D02*Y316780D01*
X206289Y324774D02*X203622Y327441D01*
X191820Y295374D02*X194882D01*
X251010Y287159D02*Y288470D01*
X194882Y285138D02*X198985D01*
X194882Y287697D02*X198684D01*
X206289Y295302D01*
X194882Y292815D02*X200779D01*
X251010Y287159D02*X251010Y287159D01*
Y288470D02*X254370Y291831D01*
X251141Y287028D02*X251010Y287159D01*
X257480Y294390D02*X242820D01*
X194882Y282579D02*X237070D01*
X194882Y290256D02*X191495D01*
X254370Y291831D02*X257480D01*
Y286713D02*X262604D01*
X263312Y287420D01*
X257480Y289272D02*X261508D01*
X257480Y276476D02*Y279035D01*
Y284154D02*X264471D01*
X264596Y284029D01*
X261508Y289272D02*X263446Y291209D01*
X263404Y272925D02*X251281D01*
X299806Y270866D02*X296048D01*
X292717D02*X296048D01*
X282677Y281594D02*X286044D01*
X282677Y279035D02*X286368D01*
X286811Y270866D02*X282624D01*
X313537D02*X299806D01*
X325689Y276476D02*X313622Y288543D01*
X282677Y276476D02*X325689D01*
X286044Y281594D02*X296744Y292294D01*
X282677Y291831D02*X285920D01*
X282677Y286713D02*X286886D01*
X325697Y284154D02*X317058Y292792D01*
X316966D01*
X282677Y284154D02*X325697D01*
X286886Y286713D02*X294738Y294565D01*
X263312Y287420D02*X265962D01*
X282677Y289272D02*X286368D01*
X282677Y294390D02*X276265D01*
X265962Y287420D02*X267910Y285473D01*
Y282153D01*
X269982Y289435D02*Y279503D01*
X273766Y279724D02*Y291654D01*
X267910Y282153D02*X265140Y279383D01*
X269982Y279503D02*X263404Y272925D01*
X282624Y270866D02*X273766Y279724D01*
X334358Y279433D02*X337898Y282972D01*
X336257Y284613D02*X337898Y282972D01*
X340945D01*
Y280413D02*Y282972D01*
Y290650D02*X349035D01*
X344441Y288091D02*X340945D01*
Y285531D02*X344142D01*
X366142Y290650D02*X363094D01*
X361440Y288995D01*
Y279382D01*
X376181Y274803D02*Y271043D01*
X366142Y285531D02*X369293D01*
X375127Y291365D01*
X366142Y293209D02*X369532D01*
X372283Y272795D02*X370276Y274803D01*
X361440Y279382D02*X362741Y278081D01*
X363181Y274803D02*X370276D01*
X362283Y270248D02*X344441Y288091D01*
X344142Y285531D02*X352283Y277390D01*
X357779Y280206D02*X363181Y274803D01*
X352485Y285628D02*Y292198D01*
X350586Y294098D01*
X347348D01*
X346459Y293209D01*
X340945D01*
X313537Y270866D02*X334358D01*
X257480Y281594D02*X251234D01*
X240328Y276476D02*X251010Y287159D01*
X239152Y281270D02*X237902Y280020D01*
X254772Y269185D02*X248843D01*
X245200Y272828D01*
X189404Y277688D02*X201643D01*
X240328Y276476D02*X214461D01*
X257480D02*X240328D01*
X194882Y280020D02*X237902D01*
X245200Y272828D02*X215713D01*
X199016Y274409D02*X198463Y273856D01*
X201643Y277688D02*X204921Y274409D01*
X212394D01*
X214461Y276476D01*
X334358Y270866D02*Y279433D01*
X336257Y294731D02*Y284613D01*
X377308Y269115D02*X377283Y269091D01*
X377308Y269115D02*Y269915D01*
X376181Y271043D02*X377308Y269915D01*
X323622Y327441D02*Y325714D01*
X330125Y319211D01*
X334880Y319250D02*X336019Y318110D01*
X328622Y325507D02*X334880Y319250D01*
X339609Y322723D02*X340072D01*
X330163Y314533D02*X334880Y319250D01*
X336019Y318110D02*X338780D01*
X344685D02*X339966Y313391D01*
X340072Y322723D02*X344685Y318110D01*
X343622Y324883D02*Y327441D01*
X288622Y332348D02*X325625D01*
X294738Y316967D02*X288622Y323083D01*
Y332348D01*
X328622Y329351D02*Y325507D01*
X335538Y336267D02*X328622Y329351D01*
X325625Y332348D02*X328622Y329351D01*
X338500Y332319D02*X333622Y327441D01*
X339966Y313391D02*X336804D01*
X331535Y308122D01*
X336083Y307310D02*Y309833D01*
X337635Y311384D01*
X331535Y308122D02*Y299454D01*
X340945Y306004D02*X337390D01*
X336083Y307310D01*
X340945Y300886D02*X334876D01*
X337635Y311384D02*X342781D01*
X343637Y312240D01*
X313622Y288543D02*Y327441D01*
X296744Y292294D02*Y324319D01*
X303622Y296290D02*Y327441D01*
X294738Y294565D02*Y316967D01*
X249665Y264291D02*X244435Y269521D01*
X169245D01*
X259665Y264291D02*X254772Y269185D01*
X202461Y264409D02*Y258912D01*
X212461Y264409D02*X208704Y260653D01*
X377283Y269091D02*Y264094D01*
X397283D02*X392263Y269115D01*
X377308D01*
X198463Y273856D02*X169720D01*
X212070Y256816D02*X258067D01*
X372283Y259092D02*Y272795D01*
X198985Y285138D02*X213622Y299775D01*
X257480Y299508D02*X251335D01*
X257480Y302067D02*X253624D01*
X200779Y292815D02*X204283Y296319D01*
X282677Y302067D02*Y299508D01*
X257480Y296949D02*X262469D01*
X269982Y289435D01*
X282677Y296949D02*X278383D01*
X276265Y294390D02*X269986Y300669D01*
X187960Y280920D02*Y290665D01*
X273766Y291654D02*X260794Y304626D01*
X257480D01*
X282677Y302067D02*X285972D01*
X287435Y303530D01*
Y305675D01*
X278383Y296949D02*X267472Y307860D01*
X285391Y319489D02*X271776D01*
X276436Y310867D02*X282677Y304626D01*
X257132Y315759D02*X259539Y318166D01*
X261492D01*
X268622Y325296D01*
X253624Y302067D02*X252717Y302974D01*
X257132Y314173D02*Y315759D01*
Y314173D02*Y312545D01*
X255315Y314173D02*X257132D01*
X257480Y304626D02*X257126Y304980D01*
X267472Y307860D02*X255819D01*
X257132Y312545D02*X258810Y310867D01*
X276436D01*
X252717Y302974D02*X247873D01*
X257126Y304980D02*X243190D01*
X247873Y302974D02*X246500Y301601D01*
X239152Y321911D02*Y281270D01*
X223622Y327441D02*Y296027D01*
X237070Y282579D01*
X243190Y304980D02*X242772Y304563D01*
X286368Y289272D02*X292731Y295635D01*
X285920Y291831D02*X290724Y296635D01*
Y314156D01*
X285391Y319489D01*
X331535Y299454D02*X336257Y294731D01*
X340945Y295768D02*X337293D01*
X336257Y294731D01*
X309123Y311959D02*Y289340D01*
X292731Y295635D02*Y314987D01*
X286368Y279035D02*X303622Y296290D01*
X353872Y311725D02*Y314281D01*
X355985Y316394D01*
X358724D01*
X368307Y318110D02*X364547Y321870D01*
X362402Y318110D02*X361962Y317670D01*
X358724Y316394D02*X360932Y314187D01*
Y314187D01*
X361293D01*
X361962Y313518D01*
X348623Y309509D02*Y319882D01*
X350630Y310561D02*Y321214D01*
X366142Y308563D02*X361880D01*
X357355Y313088D01*
X359593Y306004D02*X353872Y311725D01*
X362365Y295768D02*X348623Y309509D01*
X362864Y298327D02*X350630Y310561D01*
X352192Y297965D02*Y297174D01*
X352283Y277390D02*Y260035D01*
X366142Y298327D02*X362864D01*
X357779Y296263D02*Y280206D01*
X340945Y303445D02*X346712D01*
X352192Y297965D01*
X340945Y298327D02*X347012D01*
X350630Y321214D02*X348623Y323220D01*
X340945Y308563D02*X345479D01*
X361962Y317670D02*Y313518D01*
X366142Y306004D02*X359593D01*
X366142D02*Y303445D01*
X345479Y308563D02*X357779Y296263D01*
X366142Y300886D02*X369276D01*
X370843Y302453D01*
Y309680D01*
X368341Y312181D01*
X372872Y320132D02*X368622Y324382D01*
X375127Y291365D02*Y325936D01*
X372872Y296549D02*Y320132D01*
X348623Y323220D02*Y329326D01*
X345631Y332319D01*
X338500D01*
X375127Y325936D02*X373622Y327441D01*
X391678Y336267D02*X335538D01*
X368622Y324382D02*Y329323D01*
X365485Y332461D01*
X358642D01*
X353622Y327441D01*
X366142Y295768D02*X362365D01*
X366142Y282972D02*X408330D01*
X362741Y278081D02*X405550D01*
X366142Y280413D02*X409161D01*
X405550Y278081D02*X406644Y276988D01*
X412453D02*X406644D01*
X410412Y281664D02*X409161Y280413D01*
X369532Y293209D02*X372872Y296549D01*
X383622Y327441D02*X408330Y302733D01*
X412453Y311598D02*X398769Y325281D01*
Y329177D01*
X391678Y336267D01*
X393622Y327441D02*X410412Y310651D01*
X408330Y302733D02*Y282972D01*
X412453Y276988D02*Y311598D01*
X410412Y310651D02*Y281664D01*
X364547Y321870D02*X358622D01*
X348623Y319882D02*X343622Y324883D01*
X261220Y314173D02*X271202D01*
X271291Y314262D01*
X197047Y317717D02*X193769Y320995D01*
X190068D01*
X255819Y307860D02*X243622Y320057D01*
X271291Y314262D02*X274480Y317452D01*
X243622Y320057D02*Y327441D01*
X260044Y322064D02*X254667Y327441D01*
X253622D01*
X274480Y317452D02*X281564D01*
X284843Y314173D01*
X279567Y321496D02*X273622Y327441D01*
X233622D02*X239152Y321911D01*
X268622Y325296D02*Y329324D01*
X265495Y332450D01*
X288622Y332348D02*X271646D01*
X268622Y329324D01*
X265495Y332450D02*X181660D01*
X178573Y329364D01*
X175642Y332295D01*
X286553Y306557D02*X278937Y314173D01*
X287435Y305675D02*X286553Y306557D01*
X287414Y307417D01*
X292731Y314987D02*X286222Y321496D01*
X279567D01*
X296744Y324319D02*X293622Y327441D01*
X377308Y269915D02*X454781D01*
X495078Y276988D02*X412453D01*
X371964Y252512D02*X362283Y262192D01*
Y270248D01*
X352283Y260035D02*X365622Y246696D01*
X363643Y238380D02*X352998D01*
X327283Y264094D01*
X396339Y255039D02*X387283Y264094D01*
X371964Y235557D02*Y252512D01*
X375504Y255872D02*X372283Y259092D01*
X375217Y230225D02*X395031Y250039D01*
X258067Y256816D02*X282650Y232232D01*
X228465Y246966D02*X245205Y230225D01*
X282650Y232232D02*X373535D01*
X245205Y230225D02*X375217D01*
X373535Y232232D02*X375504Y234201D01*
Y255872D01*
X454781Y269915D02*X471547Y253150D01*
X489567D02*X471547D01*
X428701Y255039D02*X396339D01*
X395031Y250039D02*X479390D01*
X485827Y241043D02*X442807D01*
X485827Y238484D02*X459380D01*
X485827Y233366D02*X467440D01*
X485827Y235925D02*X460162D01*
X479390Y250039D02*X485827Y243602D01*
X442807Y241043D02*X441803Y240039D01*
X459380Y238484D02*X450941Y230045D01*
X433707D01*
X460172Y226098D02*X458754D01*
X460162Y235925D02*X444277Y220040D01*
X426605D01*
X467440Y233366D02*X460172Y226098D01*
X459585Y224092D02*X461004D01*
X462052Y225140D01*
X460416Y222085D02*X461835D01*
X462880Y223130D01*
X462052Y225140D02*X479938D01*
X480487Y225689D01*
X485827D01*
Y228248D02*X478767D01*
X478569Y228447D01*
X462880Y223130D02*X485827D01*
X463598Y220565D02*X485821D01*
Y220565D01*
X485827Y220571D01*
X441803Y240039D02*X433701D01*
X428701Y245039D01*
X433707Y230045D02*X428701Y225039D01*
X174514Y293833D02*Y284177D01*
X172916Y282579D01*
X169685D01*
X174514Y284177D02*X180026D01*
X169685Y280020D02*Y282579D01*
X179304Y277721D02*X166139D01*
X164979Y278881D01*
Y283500D01*
X166617Y285138D01*
X162972Y284428D02*X166241Y287697D01*
X161465Y293124D02*X157853D01*
X160635Y297933D02*X169685D01*
Y303051D02*X160706D01*
X158693Y301038D01*
X159969Y290256D02*X159531Y289817D01*
X169685Y292815D02*X161775D01*
X161465Y293124D01*
X169685Y308169D02*X160859D01*
X154197Y301507D01*
X166617Y285138D02*X169685D01*
X166241Y287697D02*X169685D01*
Y290256D02*X159969D01*
X157853Y293124D02*X156224Y291495D01*
X159133Y296431D02*X160635Y297933D01*
X156224Y291495D02*Y288208D01*
X154197Y301507D02*Y279647D01*
X157480Y276363D01*
X156224Y288208D02*X159278Y285155D01*
X159544D01*
X169245Y269521D02*X162972Y275794D01*
X157480Y276363D02*Y260523D01*
X162972Y275794D02*Y284428D01*
X180026Y284177D02*X186591Y277613D01*
X189330D01*
X189404Y277688D01*
X185506Y264409D02*X182461D01*
X208704Y260653D02*Y255506D01*
X227480Y59055D02*X234876Y51659D01*
X254618Y89657D02*X239724Y74764D01*
X229724D02*Y93037D01*
X245389Y54144D02*X242480Y57053D01*
Y61334D01*
X239897Y63917D01*
X234876Y51659D02*X263459D01*
X284252Y72516D02*X270791Y59055D01*
X247480D01*
X276530Y54966D02*X262090D01*
X261269Y54144D01*
X245389D01*
X307492Y100087D02*X284252Y76848D01*
Y72516D01*
X308457Y101052D02*X307492Y100087D01*
X294252Y83304D02*Y72688D01*
X305798Y90174D02*X308023Y92398D01*
X304252Y76644D02*Y72861D01*
X309960Y99012D02*X294252Y83304D01*
X332874Y104331D02*X329596Y101052D01*
X308457D01*
X326969Y104331D02*X330424Y107786D01*
X338380Y107833D02*Y101109D01*
X330424Y107786D02*X335254D01*
X336162Y106877D01*
Y101945D01*
X333229Y99012D01*
X309960D01*
X346406Y111157D02*Y97753D01*
X344400Y98584D02*Y110326D01*
X340386Y100246D02*Y108664D01*
X342393Y99415D02*Y109495D01*
X359055Y109547D02*Y112106D01*
Y114665D02*X355768D01*
X350437Y109334D01*
X372983Y114691D02*X383737Y103937D01*
X359055Y109547D02*X367949D01*
X348413Y96922D02*Y111988D01*
X350437Y109334D02*Y91031D01*
X383737Y103937D02*X388386D01*
X391918Y107469D01*
X394653Y98624D02*X363898D01*
X322835Y112500D02*X333712D01*
X384252Y117224D02*X387558D01*
X388783Y116000D01*
X393813D01*
X384252Y114665D02*X381116D01*
X333712Y112500D02*X338380Y107833D01*
X322835Y109941D02*X308148D01*
X307232Y109025D01*
X394028Y65617D02*Y80830D01*
X381228Y79782D02*X389307D01*
X387772Y83089D02*X387880D01*
X373937Y79575D02*Y64322D01*
X369483Y48663D02*X363937Y54210D01*
X364665Y44776D02*X373187D01*
X394028Y65617D01*
X373937Y64322D02*X380964Y57295D01*
X363937Y54210D02*Y76839D01*
X346406Y97753D02*X334911Y86258D01*
X333808D01*
X334080Y88265D02*X344400Y98584D01*
X332538Y92398D02*X340386Y100246D01*
X338380Y101109D02*X332976Y95705D01*
X333249Y90272D02*X342393Y99415D01*
X363937Y76839D02*X382580Y95481D01*
X335350Y83859D02*X348413Y96922D01*
X380064Y80946D02*X381228Y79782D01*
X350437Y91031D02*X337357Y77952D01*
X332976Y95705D02*X331169D01*
X387129Y92767D02*X373937Y79575D01*
X363898Y98624D02*X342077Y76804D01*
X296406Y64988D02*X306380D01*
X298491Y69911D02*X276932Y48352D01*
X294252Y72688D02*X276530Y54966D01*
X285006Y44682D02*X298585Y58261D01*
X314396Y62981D02*X297534D01*
X320310Y53655D02*X298876D01*
X342077Y72584D02*X312645Y43152D01*
X288333D01*
X333808Y86258D02*X324399Y76849D01*
Y72984D02*X314396Y62981D01*
X306380Y64988D02*X314399Y73007D01*
Y76885D01*
X314592Y86985D02*X304252Y76644D01*
X298585Y58261D02*X322078D01*
X319408Y60267D02*X320762Y61621D01*
X304252Y72861D02*X301302Y69911D01*
X298491D01*
X314399Y76885D02*X325779Y88265D01*
X317515Y86985D02*X314592D01*
X317515D02*X320802Y90272D01*
X325779Y88265D02*X334080D01*
X320802Y90272D02*X333249D01*
X297754Y60267D02*X319408D01*
X308023Y92398D02*X332538D01*
X322078Y58261D02*X335350Y71532D01*
Y83859D01*
X324399Y76849D02*Y72984D01*
X337357Y77952D02*Y70701D01*
X320310Y53655D01*
X342077Y76804D02*Y72584D01*
X297638Y109941D02*X307492Y100087D01*
X297638Y109941D02*Y112500D01*
X300685D01*
X297638Y115059D02*X254618D01*
Y89657D01*
X229724Y93037D02*X254305Y117618D01*
X297638D01*
X300685Y112500D02*X302294Y114109D01*
X372779Y133138D02*Y126570D01*
X374989Y124360D01*
X370772Y131415D02*Y125739D01*
X372983Y123529D01*
X370713Y111274D02*X369676D01*
X370976Y116183D02*Y111537D01*
X374989Y124360D02*Y115687D01*
X372983Y123529D02*Y114691D01*
X367949Y109547D02*X369676Y111274D01*
X370976Y111537D02*X370713Y111274D01*
X370976Y111537D02*X381876Y100636D01*
X374989Y115687D02*X381130Y109547D01*
X381116Y114665D02*X376996Y118785D01*
X368708Y130529D02*Y123126D01*
X384252Y119783D02*X381033D01*
X379299Y121517D01*
Y127689D01*
X378257Y128731D01*
X376996Y118785D02*Y125191D01*
X374786Y127401D01*
X485827Y215453D02*Y218012D01*
X486737Y203224D02*X483268Y206693D01*
X476900Y213061D02*X483268Y206693D01*
X485433Y199043D02*Y197146D01*
Y168996D02*Y166696D01*
Y171555D02*Y168996D01*
Y194587D02*X490898D01*
X485433Y174114D02*Y174114D01*
X490898Y194587D02*X491428Y194057D01*
X485433Y189469D02*X477094D01*
X482205Y192028D02*X485433D01*
X433554Y190186D02*X472281D01*
X477094Y189469D02*X465853Y200709D01*
X472191Y204788D02*Y202042D01*
X482205Y192028D01*
X472281Y190186D02*X475558Y186909D01*
X457678Y176673D02*X445148Y164144D01*
X453450Y179232D02*X485433D01*
X463400Y174114D02*X456554Y167267D01*
X459904Y165732D02*Y162388D01*
X475558Y186909D02*X485433D01*
Y176673D02*X457678D01*
X485433Y174114D02*X463400D01*
X485433Y181791D02*X442413D01*
X440808Y180186D01*
X444257Y170039D02*X453450Y179232D01*
X469909Y158069D02*X468899D01*
X458754Y226098D02*X442694Y210039D01*
X436831D01*
X433701Y206909D01*
Y202883D02*X430857Y200039D01*
X444437Y215039D02*X438701D01*
X445039Y195043D02*Y209546D01*
X459585Y224092D01*
X450622Y210394D02*Y212292D01*
X460416Y222085D01*
X458222Y215188D02*X463598Y220565D01*
X458803Y229405D02*X444437Y215039D01*
X465853Y200709D02*X450770D01*
X433701Y206909D02*Y202883D01*
X430857Y200039D02*X426713D01*
X423746Y197072D01*
Y189994D01*
X428701Y195039D02*X433554Y190186D01*
X423746Y189994D02*X428701Y185039D01*
X440808Y180186D02*X433848D01*
X428701Y175039D01*
Y155039D02*X433701Y160039D01*
Y167094D01*
X436646Y170039D01*
X444257D01*
X426605Y220040D02*X423798Y217233D01*
Y209942D01*
X428701Y205039D01*
X485433Y166696D02*X484036Y165299D01*
X484055Y160630D02*X487418Y163993D01*
X476350Y147531D02*Y151628D01*
X480476Y143406D02*X476350Y147531D01*
X486220Y148524D02*X480233D01*
X473757Y147161D02*X480071Y140846D01*
X486220D01*
X482170Y135728D02*X469485Y148414D01*
Y150668D01*
X486220Y128051D02*X443201D01*
X470571Y133169D02*X486220D01*
X453130Y130610D02*X486220D01*
Y122933D02*X446448D01*
X486220D02*Y125492D01*
Y143406D02*X480476D01*
X486220Y135728D02*X482170D01*
X476350Y151628D02*X469909Y158069D01*
X470724Y154133D02*X473757Y151100D01*
Y147161D01*
X456554Y167267D02*Y152628D01*
X459904Y162388D02*X468159Y154133D01*
X438701Y165039D02*X470571Y133169D01*
X438701Y145039D02*X453130Y130610D01*
X468159Y154133D02*X470724D01*
X487174Y99342D02*X451741D01*
X443555Y120039D02*Y109893D01*
X486220Y122933D02*Y119695D01*
X443555Y109893D02*X438701Y105039D01*
Y125039D02*X440189D01*
X443201Y128051D01*
X485944Y168996D02*X485433D01*
X486220Y145965D02*X490930D01*
X492203Y144691D01*
X438701Y95039D02*Y92000D01*
X428701Y95039D02*X433776Y100115D01*
X440822D01*
X445169Y95768D01*
X438701Y92000D02*X445169Y85531D01*
X488189Y95768D02*X445169D01*
X446856Y93209D02*X446067Y92419D01*
X488189Y90650D02*X494201D01*
X488189Y88091D02*X459117D01*
X458279Y88929D01*
X488189Y85531D02*X445169D01*
X488189Y93209D02*X446856D01*
X477463Y82972D02*X471430Y76939D01*
Y73849D01*
X488189Y75295D02*X474737D01*
X488189Y77854D02*X480098D01*
X479297Y78655D01*
X449803Y61327D02*X488468D01*
X488189Y82972D02*X477463D01*
X471430Y73849D02*X473928Y71350D01*
X481591D01*
X488189Y80413D02*X494207D01*
X381876Y100636D02*X390991D01*
X382580Y95481D02*X394596D01*
X387880Y83089D02*X403701Y98910D01*
X401694Y99741D02*X394719Y92767D01*
X387129D01*
X394596Y95481D02*X399687Y100572D01*
X394028Y80830D02*X407714Y94516D01*
X389307Y79782D02*X405707Y96183D01*
X449803Y61327D02*X411928Y99202D01*
X394869Y112106D02*X384252D01*
X381130Y109547D02*X384252D01*
X391918Y107469D02*X396436D01*
X390991Y100636D02*X394291Y103937D01*
X399687Y107288D02*X394869Y112106D01*
X396436Y107469D02*X397648Y106257D01*
Y101619D01*
X394653Y98624D01*
X399687Y100572D02*Y107288D01*
X407714Y94516D02*Y113401D01*
X405707Y96183D02*Y112159D01*
X403701Y98910D02*Y111304D01*
X401694Y108119D02*Y99741D01*
X411928Y99202D02*Y113190D01*
X393813Y116000D02*X401694Y108119D01*
X413493Y208636D02*X397874D01*
X370877Y181639D01*
X376292Y148288D02*Y179326D01*
X415445Y203707D02*Y178295D01*
X372884Y180688D02*X377726Y185530D01*
X387050D01*
X386417Y147244D02*Y145454D01*
X375248Y147244D02*X376292Y148288D01*
X380512Y147244D02*X375248D01*
X415445Y178295D02*X428701Y165039D01*
X370877Y181639D02*Y135040D01*
X372779Y133138D01*
X379973Y135138D02*X375248Y139863D01*
Y147244D01*
X374786Y133969D02*X372884Y135871D01*
Y180688D01*
X393308Y138563D02*X394784Y140039D01*
X386417Y145454D02*X393308Y138563D01*
X384252Y135138D02*X379973D01*
X387421Y137697D02*X384252D01*
X380694Y141255D01*
X378716D01*
X384252Y135138D02*Y132579D01*
X374786Y127401D02*Y133969D01*
X391095Y130020D02*X384252D01*
X390406Y127461D02*X384252D01*
X390103Y124902D02*X384252D01*
Y122343D02*X387891D01*
X394784Y140039D02*X430857D01*
X433701Y137195D01*
Y123142D01*
X407714Y113401D02*X391095Y130020D01*
X433701Y123142D02*X436803Y120039D01*
X443555D01*
X446448Y122933D02*X443555Y120039D01*
X405707Y112159D02*X390406Y127461D01*
X403701Y111304D02*X390103Y124902D01*
X387891Y122343D02*X390328Y119906D01*
X411928Y113190D02*X387421Y137697D01*
X302294Y114109D02*Y123924D01*
X300922Y125295D01*
X322835Y122736D02*X312120D01*
X322835Y117618D02*X316453D01*
X329988Y130413D02*X322835D01*
Y127854D02*X329709D01*
X329430Y125295D02*X322835D01*
X333991Y115059D02*X322835D01*
X331711Y120177D02*X322835D01*
X348413Y111988D02*X329988Y130413D01*
X329709Y127854D02*X346406Y111157D01*
X343961Y133430D02*X338131D01*
X359055Y124902D02*X362257D01*
X359055Y122343D02*X355049D01*
X343961Y133430D01*
X359055Y119783D02*X352878D01*
X359055Y127461D02*X355978D01*
X352919Y130519D01*
X352878Y119783D02*X352841Y119747D01*
X344400Y110326D02*X329430Y125295D01*
X340386Y108664D02*X333991Y115059D01*
X342393Y109495D02*X331711Y120177D01*
X362257Y124902D02*X370976Y116183D01*
X359055Y117224D02*X364819D01*
X365038Y117444D01*
X362795Y147244D02*Y148455D01*
X361577Y140352D02*X366074Y144848D01*
Y149640D01*
X349989Y165725D01*
X354572Y151843D02*Y149562D01*
X356890Y147244D01*
X286057Y165725D02*X274219Y177563D01*
X272352D01*
X276329Y150531D02*X286209Y160411D01*
X290488Y155309D02*X288009Y152830D01*
Y149322D01*
X293001Y144331D01*
X291870Y151240D02*X291347D01*
X293001Y144331D02*X301378D01*
X295472Y147638D02*X291870Y151240D01*
X295472Y147638D02*X298954Y151119D01*
X301378Y147638D02*Y144331D01*
X298954Y151119D02*X311373D01*
X315248Y147244D01*
Y145677D01*
X355942Y155309D02*X290488D01*
X332364Y147244D02*X315248D01*
X332364D02*X335425D01*
X362795Y148455D02*X355942Y155309D01*
X301378Y144331D02*X302294Y143415D01*
X325000Y147638D02*X328753Y143885D01*
X359436D01*
X362795Y147244D01*
X356890D02*X335425D01*
X349989Y165725D02*X286057D01*
X299015Y162364D02*X297661Y163718D01*
X288659Y168211D02*X367570D01*
X282187Y179185D02*X363642D01*
X279399Y184811D02*X352571D01*
X302294Y143415D02*Y126667D01*
X300922Y125295D01*
X322835Y133784D02*X316819D01*
X322835D02*Y132972D01*
Y135531D02*Y133784D01*
Y135531D02*X326224D01*
X327614Y136921D01*
Y139118D01*
X319094Y147638D01*
X315248Y145677D02*X322835Y138091D01*
X297638Y132972D02*X237933D01*
X297638Y130413D02*X245374D01*
X254618Y120177D02*X253736D01*
X297638D02*X254618D01*
X300922Y125295D02*X297638D01*
Y127854D02*X252815D01*
X297638Y122736D02*X253437D01*
X230492Y135531D02*X297638D01*
X355529Y135138D02*X354273Y136394D01*
Y139168D01*
X355457Y140352D01*
X361577D01*
X359055Y135138D02*X355529D01*
X359055Y132579D02*X366658D01*
X368708Y130529D01*
X359055Y130020D02*X364292D01*
X365134Y129178D01*
X359055Y137697D02*X364490D01*
X370772Y131415D01*
X272352Y177563D02*X185506Y264409D01*
X152461D02*X142461D01*
X149296Y249835D02*X194760D01*
X192461Y264409D02*X288659Y168211D01*
X272849Y174256D02*X149296D01*
X202461Y258912D02*X282187Y179185D01*
X208704Y255506D02*X279399Y184811D01*
X128684Y150531D02*X276329D01*
X237933Y132972D02*X179724Y74764D01*
X209724Y79023D02*Y74764D01*
X169724D02*X230492Y135531D01*
X224109Y138091D02*X164871Y78852D01*
X245374Y130413D02*X189724Y74764D01*
X253736Y120177D02*X219724Y86165D01*
Y74764D01*
X239897Y63917D02*X172342D01*
X172019Y63593D01*
X167480Y59055D01*
X164871Y78852D02*Y70741D01*
X172019Y63593D01*
X297638Y138091D02*X224109D01*
X217480Y59055D02*Y45030D01*
X252815Y127854D02*X199724Y74764D01*
X253437Y122736D02*X209724Y79023D01*
X276932Y48352D02*X225400D01*
X126264Y169583D02*X266530D01*
X297661Y163718D02*X130919D01*
X129114Y161913D01*
X217480Y45030D02*X235000Y27510D01*
X265147Y30594D02*Y21137D01*
X260000Y22953D02*Y28583D01*
X285006Y20220D02*Y44682D01*
X297534Y62981D02*X265147Y30594D01*
X260000Y28583D02*X296406Y64988D01*
X270000Y22953D02*Y32514D01*
X297754Y60267D01*
X300000Y22953D02*X317143Y40096D01*
X335937D01*
X344853Y24964D02*X364665Y44776D01*
X449803Y19685D02*Y61327D01*
X143020Y19685D02*X148619Y14086D01*
X101378Y19685D02*X143020D01*
X99561D02*X101378D01*
X148619Y14086D02*X188290D01*
X154528Y19685D02*Y19149D01*
X157376Y16301D01*
X183348D01*
X210000Y23272D02*X215902D01*
X210000D02*Y22953D01*
X188290Y14086D02*X195147Y20943D01*
X183348Y16301D02*X190000Y22953D01*
X99561Y19685D02*X59736D01*
X42323D01*
X36417D02*X39855Y23122D01*
X151090D01*
X154528Y19685D01*
X235000Y27510D02*Y20908D01*
X219488Y19685D02*X227441Y11733D01*
X215902Y23272D02*X219488Y19685D01*
X220000Y22953D02*Y20197D01*
X219488Y19685D01*
X195147Y20943D02*Y25244D01*
X197955Y28052D01*
X205220D01*
X210000Y23272D01*
X235000Y20908D02*X242028Y13881D01*
X240000Y22953D02*X247035Y15917D01*
X280703D01*
X261985Y17975D02*X254978D01*
X250000Y22953D01*
X242028Y13881D02*X397928D01*
X265147Y21137D02*X261985Y17975D01*
X326682Y16271D02*X340183D01*
X344853Y20941D01*
X320000Y22953D02*X326682Y16271D01*
X405000Y25146D02*X407660Y27806D01*
X227441Y11733D02*X406115D01*
X280703Y15917D02*X285006Y20220D01*
X344853Y20941D02*Y24964D01*
X397928Y13881D02*X405000Y20952D01*
Y25146D01*
X407660Y27806D02*X414266D01*
X406115Y11733D02*X414067Y19685D01*
X455709D02*X414067D01*
X473122D02*X455709D01*
X483678Y200798D02*X485433Y199043D01*
Y184350D02*X488553D01*
X490145Y182758D01*
X492614Y203224D02*X486737D01*
X489961Y160630D02*Y158418D01*
X490145Y182758D02*Y173197D01*
X485944Y168996D01*
X487418Y163993D02*X493838D01*
X497686Y144074D02*X490678Y151083D01*
X486220D01*
X489961Y158418D02*X492637Y155741D01*
X506890Y201427D02*X499446D01*
X505867Y197146D02*X498692D01*
X492614Y203224D01*
X506890Y201427D02*X512093D01*
X515287Y198233D01*
Y196059D01*
X505867Y197146D02*X510630D01*
X502557Y160630D02*X502457Y160730D01*
X505867Y178894D02*X493838Y166865D01*
Y163993D01*
X507677Y160630D02*X508949Y159358D01*
X507677Y160630D02*X502557D01*
X493838Y163993D02*X506748Y151083D01*
X511417D01*
X515287Y196059D02*X513814Y194587D01*
X510630D01*
Y192028D01*
X505867Y179232D02*Y178894D01*
X510630Y179232D02*X505867D01*
Y197146D01*
X510630Y189469D02*X516002D01*
X516802Y190269D01*
X508949Y159358D02*Y159350D01*
X508340Y133169D02*X506748Y134761D01*
Y151083D01*
X505835Y130664D02*X508340Y133169D01*
X511417D01*
X508949Y159350D02*X510192Y158107D01*
X510200D01*
X514776Y148524D02*X511417D01*
Y145965D01*
Y140846D02*X514997D01*
X511417Y143406D02*X514716D01*
X497686Y117323D02*Y144074D01*
X491929Y107874D02*X495398Y104405D01*
Y103569D01*
X491929Y107874D02*X494724Y110669D01*
Y111192D01*
X488189Y98327D02*X487174Y99342D01*
X488189Y98327D02*X491277D01*
X501356Y88248D01*
X494101Y85531D02*X488189D01*
X486220Y125492D02*X489470D01*
X486220Y119695D02*X494724Y111192D01*
X495326Y98572D02*X486024Y107874D01*
X489470Y125492D02*X490926Y126948D01*
X505835Y121013D02*Y130664D01*
X490926Y126948D02*Y136748D01*
X489387Y138287D01*
X486220D01*
X515551Y111192D02*X494724D01*
X515551D02*Y107874D01*
Y111417D02*Y111192D01*
X509646Y106057D02*X502902D01*
X511463D02*X509646D01*
Y107874D02*Y106057D01*
X501356Y88248D02*Y76427D01*
X497658Y78986D02*Y81974D01*
X494101Y85531D01*
X513386Y95768D02*X516744D01*
X513386D02*Y93209D01*
X508657Y98327D02*Y82094D01*
X510338Y80413D01*
X513386D01*
X516744Y95768D02*X518233Y97256D01*
Y99287D01*
X504875Y98572D02*X495326D01*
X508657Y98327D02*X505120D01*
X504875Y98572D01*
X513386Y98327D02*X508657D01*
X518233Y99287D02*X511463Y106057D01*
X489173Y209400D02*X493770D01*
X490484Y230807D02*X490667D01*
X511372Y251513D02*Y253150D01*
X511024Y243602D02*X519744Y252322D01*
X490667Y230807D02*X511372Y251513D01*
X511024Y238484D02*X507824D01*
X500615Y231276D01*
X511024Y241043D02*Y238484D01*
X489173Y209400D02*Y212106D01*
Y206693D02*Y209400D01*
X490484Y230807D02*Y218569D01*
X490198Y218283D01*
X511372Y253150D02*X489567D01*
X513189D02*X511372D01*
X519744Y252322D02*X495078Y276988D01*
X519744Y252322D02*X521358Y253937D01*
X511024Y228248D02*X507747D01*
X517446Y220570D02*X511024D01*
Y220571D01*
Y215453D02*X508564Y212993D01*
X511024Y218012D02*X515316D01*
X516995Y216333D01*
X507747Y228248D02*X504036Y224537D01*
Y222247D01*
X500615Y231276D02*Y212967D01*
X506890Y206693D01*
Y201427D02*Y206693D01*
X508564Y212993D02*X505984D01*
X489173Y212106D02*X485827Y215453D01*
X490484Y230807D02*X485827D01*
X490198Y218283D02*X489145D01*
X489139Y218277D01*
X488651D01*
X485827Y215453D01*
X510200Y158107D02*X516264Y152043D01*
Y150012D01*
X514776Y148524D01*
X515551Y117323D02*X497686D01*
X516009Y138287D02*X526750Y149028D01*
X514997Y140846D02*X522082Y147931D01*
Y149504D01*
X514716Y143406D02*X518689Y147379D01*
Y151828D01*
X520991Y154130D01*
X511417Y138287D02*X516009D01*
X511417Y122933D02*X554437D01*
X511417Y128051D02*X554437D01*
Y135452D02*X567922Y148937D01*
X511417Y135728D02*X531308D01*
X511417Y130610D02*X538837D01*
X511417Y125492D02*X558744D01*
X558427Y118943D02*X554437Y122933D01*
Y128051D02*Y135452D01*
X567922Y148937D02*X574803D01*
X567164Y158937D02*X571675D01*
X574803Y162065D01*
Y148937D02*X579803Y153937D01*
X550362Y116395D02*X567345D01*
X531308Y135728D02*X562089Y166509D01*
X538837Y130610D02*X567164Y158937D01*
X558744Y125492D02*X562189Y128937D01*
X574803D01*
X579803Y133937D01*
Y113937D02*X574797Y118943D01*
X558427D01*
X567345Y116395D02*X569803Y113937D01*
X515551Y107874D02*X557193D01*
X521457Y117323D02*X515551Y111417D01*
X567815Y235925D02*X511024D01*
X521358Y253937D02*X569803D01*
X511024Y230807D02*X554915D01*
X559800Y225922D01*
X511024Y223130D02*X532015D01*
X511024Y225689D02*X554043D01*
X559800Y225922D02*Y207507D01*
X543826Y194191D02*X517446Y220570D01*
X532015Y223130D02*X557078Y198067D01*
X554043Y225689D02*X555250D01*
X559648Y228937D02*X555219Y233366D01*
X554043D01*
X511024D02*X554043D01*
X564157Y198291D02*Y194858D01*
X553650Y184350D01*
X510630D02*X553650D01*
X510630Y186909D02*X550741D01*
X569803Y203937D02*X564157Y198291D01*
X574950Y189084D02*X565017D01*
X561298Y185365D01*
X550741Y186909D02*X562151Y198320D01*
X510630Y181791D02*X567657D01*
X579803Y223937D02*Y220950D01*
X574803Y215950D01*
Y201750D01*
X569803Y213937D02*X574803Y218937D01*
X567657Y181791D02*X569803Y183937D01*
X574803Y201750D02*X577470Y199083D01*
X579803Y193937D02*X574950Y189084D01*
X574803Y218937D02*Y225844D01*
X563107Y217241D02*X569803Y223937D01*
X574803Y225844D02*X571710Y228937D01*
X559648D01*
X562151Y198320D02*Y205182D01*
X563107Y206138D01*
Y217241D01*
X569803Y163937D02*X557067Y176673D01*
X553650Y174114D02*Y173270D01*
X574803Y162065D02*Y168937D01*
X579803Y173937D01*
X557067Y176673D02*X510630D01*
Y174114D02*X553650D01*
X510630Y171555D02*X525193D01*
X529651Y167097D01*
X510630Y168996D02*X520830D01*
X529633Y160193D01*
X488189Y70177D02*X497078Y61289D01*
X488189Y70177D02*Y72736D01*
X491409D01*
X501356Y76427D02*X513216Y64567D01*
X517520D01*
X497078Y61289D02*X520786D01*
X513386Y75295D02*X507387D01*
X520786Y61289D02*X523425Y63928D01*
Y64567D02*Y63928D01*
X513386Y70177D02*X529659D01*
X513386Y72736D02*X522991D01*
X523880Y73625D01*
X556406Y77854D02*X559200Y75060D01*
X523880Y73625D02*X555910D01*
X491409Y72736D02*X497658Y78986D01*
X574803Y98937D02*X566130D01*
X557193Y107874D01*
X569803Y233937D02*X567815Y235925D01*
X579803Y93937D02*X574803Y98937D01*
X569803Y83937D02*X561445Y92295D01*
X558051D01*
X565450Y79079D02*X558997Y85531D01*
X559200Y75060D02*X590103D01*
X584667Y81829D02*X581917Y79079D01*
X565450D01*
X586673Y80998D02*X582748Y77072D01*
X562306D01*
X556406Y82972D01*
X558051Y92295D02*X556406Y90650D01*
X577470Y199083D02*X581670D01*
X584667Y196087D01*
X579803Y203937D02*X586673Y197067D01*
X584667Y196087D02*Y81829D01*
X586673Y197067D02*Y80998D01*
X513386Y77854D02*X556406D01*
X513386Y88091D02*X558527D01*
X559318Y88881D01*
X558997Y85531D02*X513386D01*
Y82972D02*X556406D01*
X523425Y63928D02*Y22925D01*
X513402Y19685D02*X516642Y22925D01*
X523425D01*
X513402Y19685D02*X473122D01*
X514764D02*X513402D01*
X513386Y90650D02*X556406D01*
G54D12*X27559Y326772D03*
G54D13*G36*
X129114Y267756D02*X135807D01*
Y261063D01*
X129114D01*
Y267756D01*
G37*
G54D14*X142461Y264409D03*
G54D13*G36*
X150276Y330787D02*X156969D01*
Y324094D01*
X150276D01*
Y330787D01*
G37*
G54D14*X152461Y264409D03*
X162461D03*
G54D15*X149296Y249835D03*
X157480Y260523D03*
G54D13*G36*
X166378Y78110D02*X173071D01*
Y71417D01*
X166378D01*
Y78110D01*
G37*
G54D15*X128684Y150531D03*
X126264Y169583D03*
X149296Y174256D03*
X129114Y161913D03*
G54D14*X163622Y327441D03*
G54D13*G36*
X166535Y308957D02*Y307382D01*
X172835D01*
Y308957D01*
X166535D01*
G37*
G36*
X165748Y315945D02*X169291D01*
Y319488D01*
X165748D01*
Y315945D01*
G37*
G54D15*X169265Y313083D03*
G54D16*X167323Y305610D02*X172047D01*
X167323Y303051D02*X172047D01*
X167323Y300492D02*X172047D01*
X167323Y297933D02*X172047D01*
X167323Y295374D02*X172047D01*
X167323Y292815D02*X172047D01*
X167323Y290256D02*X172047D01*
X167323Y287697D02*X172047D01*
X167323Y285138D02*X172047D01*
X167323Y282579D02*X172047D01*
X167323Y280020D02*X172047D01*
G54D15*X169720Y273856D03*
X159531Y289817D03*
X159544Y285155D03*
X159133Y296431D03*
X158693Y301038D03*
G54D12*X27559Y27559D03*
G54D13*G36*
X34646Y17913D02*X38189D01*
Y21457D01*
X34646D01*
Y17913D01*
G37*
G36*
X40551D02*X44094D01*
Y21457D01*
X40551D01*
Y17913D01*
G37*
G36*
X93701D02*X97244D01*
Y21457D01*
X93701D01*
Y17913D01*
G37*
G36*
X99606D02*X103150D01*
Y21457D01*
X99606D01*
Y17913D01*
G37*
G36*
X152756D02*X156299D01*
Y21457D01*
X152756D01*
Y17913D01*
G37*
G54D14*X179724Y74764D03*
G54D13*G36*
X156654Y26299D02*X163346D01*
Y19606D01*
X156654D01*
Y26299D01*
G37*
G36*
X158661Y17913D02*X162205D01*
Y21457D01*
X158661D01*
Y17913D01*
G37*
G36*
X154134Y62402D02*X160827D01*
Y55709D01*
X154134D01*
Y62402D01*
G37*
G54D14*X167480Y59055D03*
X177480D03*
X189724Y74764D03*
X170000Y22953D03*
X180000D03*
X187480Y59055D03*
X172461Y264409D03*
X173622Y327441D03*
G54D13*G36*
X171654Y315945D02*X175197D01*
Y319488D01*
X171654D01*
Y315945D01*
G37*
G54D15*X175644Y297580D03*
G54D14*X182461Y264409D03*
X183622Y327441D03*
G54D15*X179304Y277721D03*
X194760Y249835D03*
X187960Y280920D03*
G54D14*X193622Y327441D03*
X203622D03*
X213622D03*
X223622D03*
X233622D03*
X243622D03*
G54D16*X192520Y285138D02*X197244D01*
X192520Y287697D02*X197244D01*
X192520Y290256D02*X197244D01*
X192520Y292815D02*X197244D01*
G54D14*X192461Y264409D03*
G54D16*X192520Y280020D02*X197244D01*
X192520Y282579D02*X197244D01*
G54D13*G36*
Y272638D02*X200787D01*
Y276181D01*
X197244D01*
Y272638D01*
G37*
G36*
X203150D02*X206693D01*
Y276181D01*
X203150D01*
Y272638D01*
G37*
G54D15*X215713Y272828D03*
X212070Y256816D03*
X228465Y246966D03*
G54D16*X192520Y295374D02*X197244D01*
X192520Y297933D02*X197244D01*
G54D15*X200861Y297588D03*
G54D16*X192520Y300492D02*X197244D01*
G54D15*X188921Y302978D03*
G54D16*X192520Y303051D02*X197244D01*
X192520Y305610D02*X197244D01*
X192520Y308169D02*X197244D01*
G54D13*G36*
X189370Y315945D02*X192913D01*
Y319488D01*
X189370D01*
Y315945D01*
G37*
G36*
X195276D02*X198819D01*
Y319488D01*
X195276D01*
Y315945D01*
G37*
G54D15*X200907Y304331D03*
G54D14*X253622Y327441D03*
G54D13*G36*
X254331Y305413D02*Y303839D01*
X260630D01*
Y305413D01*
X254331D01*
G37*
G54D16*X255118Y302067D02*X259843D01*
G54D13*G36*
X253543Y312402D02*X257087D01*
Y315945D01*
X253543D01*
Y312402D01*
G37*
G54D16*X255118Y299508D02*X259843D01*
G54D15*X242820Y294390D03*
X251335Y299508D03*
X246500Y301601D03*
G54D16*X255118Y296949D02*X259843D01*
X255118Y294390D02*X259843D01*
X255118Y291831D02*X259843D01*
G54D15*X242772Y304563D03*
G54D16*X255118Y289272D02*X259843D01*
X255118Y286713D02*X259843D01*
G54D15*X251141Y287028D03*
G54D16*X255118Y284154D02*X259843D01*
X255118Y281594D02*X259843D01*
X255118Y279035D02*X259843D01*
X255118Y276476D02*X259843D01*
G54D15*X251234Y281594D03*
X251281Y272925D03*
G54D14*X263622Y327441D03*
G54D13*G36*
X259449Y312402D02*X262992D01*
Y315945D01*
X259449D01*
Y312402D01*
G37*
G54D15*X271291Y314262D03*
X287414Y307417D03*
X271776Y319489D03*
G54D13*G36*
X337795Y309350D02*Y307776D01*
X344094D01*
Y309350D01*
X337795D01*
G37*
G36*
X337008Y316339D02*X340551D01*
Y319882D01*
X337008D01*
Y316339D01*
G37*
G54D15*X339609Y322723D03*
X334876Y300886D03*
X309123Y311959D03*
X260044Y322064D03*
X269986Y300669D03*
X330125Y319211D03*
X330163Y314533D03*
G54D16*X338583Y306004D02*X343307D01*
X338583Y303445D02*X343307D01*
X338583Y300886D02*X343307D01*
X338583Y298327D02*X343307D01*
X338583Y295768D02*X343307D01*
X363780Y298327D02*X368504D01*
X363780Y300886D02*X368504D01*
G54D15*X352192Y297174D03*
X347012Y298327D03*
G54D16*X363780Y295768D02*X368504D01*
X363780Y303445D02*X368504D01*
X363780Y306004D02*X368504D01*
X363780Y308563D02*X368504D01*
G54D13*G36*
X360630Y316339D02*X364173D01*
Y319882D01*
X360630D01*
Y316339D01*
G37*
G54D15*X361962Y313518D03*
X357355Y313088D03*
G54D13*G36*
X366535Y316339D02*X370079D01*
Y319882D01*
X366535D01*
Y316339D01*
G37*
G54D15*X368341Y312181D03*
G54D13*G36*
X342913Y316339D02*X346457D01*
Y319882D01*
X342913D01*
Y316339D01*
G37*
G54D15*X343637Y312240D03*
X358622Y321870D03*
G54D16*X338583Y293209D02*X343307D01*
X363780D02*X368504D01*
G54D15*X371964Y235557D03*
X365622Y246696D03*
X363643Y238380D03*
X264596Y284029D03*
X265140Y279383D03*
X263446Y291209D03*
G54D16*X338583Y290650D02*X343307D01*
X363780D02*X368504D01*
G54D15*X309123Y289340D03*
X316966Y292792D03*
X349035Y290650D03*
X352485Y285628D03*
G54D16*X338583Y288091D02*X343307D01*
X338583Y285531D02*X343307D01*
X338583Y282972D02*X343307D01*
X338583Y280413D02*X343307D01*
X363780D02*X368504D01*
X363780Y282972D02*X368504D01*
X363780Y285531D02*X368504D01*
X363780Y288091D02*X368504D01*
G54D13*G36*
Y273031D02*X372047D01*
Y276575D01*
X368504D01*
Y273031D01*
G37*
G36*
X374409D02*X377953D01*
Y276575D01*
X374409D01*
Y273031D01*
G37*
G54D15*X406644Y276988D03*
G54D14*X273622Y327441D03*
G54D16*X280315Y299508D02*X285039D01*
X280315Y302067D02*X285039D01*
X280315Y304626D02*X285039D01*
G54D13*G36*
X277165Y312402D02*X280709D01*
Y315945D01*
X277165D01*
Y312402D01*
G37*
G54D16*X280315Y291831D02*X285039D01*
X280315Y294390D02*X285039D01*
X280315Y296949D02*X285039D01*
G54D13*G36*
X283071Y312402D02*X286614D01*
Y315945D01*
X283071D01*
Y312402D01*
G37*
G54D16*X280315Y284154D02*X285039D01*
X280315Y286713D02*X285039D01*
X280315Y289272D02*X285039D01*
X280315Y276476D02*X285039D01*
X280315Y279035D02*X285039D01*
X280315Y281594D02*X285039D01*
G54D13*G36*
Y269094D02*X288583D01*
Y272638D01*
X285039D01*
Y269094D01*
G37*
G36*
X290945D02*X294488D01*
Y272638D01*
X290945D01*
Y269094D01*
G37*
G54D15*X299806Y270866D03*
G54D14*X283622Y327441D03*
X293622D03*
X303622D03*
X313622D03*
X323622D03*
X333622D03*
X343622D03*
X353622D03*
X363622D03*
X373622D03*
X383622D03*
X393622D03*
X403622D03*
G54D13*G36*
X293701Y145866D02*X297244D01*
Y149409D01*
X293701D01*
Y145866D01*
G37*
G36*
X299606D02*X303150D01*
Y149409D01*
X299606D01*
Y145866D01*
G37*
G54D15*X286209Y160411D03*
X291347Y151240D03*
G54D13*G36*
X294488Y138878D02*Y137303D01*
X300787D01*
Y138878D01*
X294488D01*
G37*
G54D16*X295276Y135531D02*X300000D01*
X295276Y132972D02*X300000D01*
G54D15*X266530Y169583D03*
X272849Y174256D03*
X299015Y162364D03*
G54D14*X190000Y22953D03*
X197480Y59055D03*
X207480D03*
X217480D03*
G54D16*X295276Y117618D02*X300000D01*
X295276Y115059D02*X300000D01*
X295276Y109941D02*X300000D01*
G54D14*X227480Y59055D03*
G54D15*X225400Y48352D03*
G54D14*X237480Y59055D03*
X247480D03*
G54D15*X263459Y51659D03*
X298876Y53655D03*
X288333Y43152D03*
G54D16*X295276Y125295D02*X300000D01*
X295276Y122736D02*X300000D01*
X295276Y112500D02*X300000D01*
G54D13*G36*
X211811Y17913D02*X215354D01*
Y21457D01*
X211811D01*
Y17913D01*
G37*
G36*
X217717D02*X221260D01*
Y21457D01*
X217717D01*
Y17913D01*
G37*
G36*
X270866D02*X274409D01*
Y21457D01*
X270866D01*
Y17913D01*
G37*
G36*
X276772D02*X280315D01*
Y21457D01*
X276772D01*
Y17913D01*
G37*
G54D16*X295276Y130413D02*X300000D01*
X295276Y127854D02*X300000D01*
X295276Y120177D02*X300000D01*
G54D15*X305798Y90174D03*
X307232Y109025D03*
G54D16*X320472Y109941D02*X325197D01*
X381890Y112106D02*X386614D01*
X381890Y114665D02*X386614D01*
G54D15*X369676Y111274D03*
G54D16*X381890Y109547D02*X386614D01*
X381890Y117224D02*X386614D01*
X381890Y119783D02*X386614D01*
X381890Y122343D02*X386614D01*
X381890Y124902D02*X386614D01*
G54D15*X368708Y123126D03*
X352841Y119747D03*
X365038Y117444D03*
X390328Y119906D03*
G54D16*X381890Y127461D02*X386614D01*
G54D15*X378257Y128731D03*
X365134Y129178D03*
G54D16*X381890Y130020D02*X386614D01*
G54D15*X338131Y133430D03*
X352919Y130519D03*
G54D13*G36*
X378740Y145472D02*X382283D01*
Y149016D01*
X378740D01*
Y145472D01*
G37*
G36*
X384646D02*X388189D01*
Y149016D01*
X384646D01*
Y145472D01*
G37*
G36*
X355118D02*X358661D01*
Y149016D01*
X355118D01*
Y145472D01*
G37*
G36*
X361024D02*X364567D01*
Y149016D01*
X361024D01*
Y145472D01*
G37*
G54D16*X381890Y132579D02*X386614D01*
X381890Y135138D02*X386614D01*
X381890Y137697D02*X386614D01*
G54D15*X378716Y141255D03*
X393308Y138563D03*
X367570Y168211D03*
X376292Y179326D03*
X363642Y179185D03*
X352571Y184811D03*
X387050Y185530D03*
X354572Y151843D03*
G54D16*X320472Y112500D02*X325197D01*
G54D13*G36*
X329921Y17913D02*X333465D01*
Y21457D01*
X329921D01*
Y17913D01*
G37*
G36*
X325197Y102559D02*X328740D01*
Y106102D01*
X325197D01*
Y102559D01*
G37*
G36*
X331102D02*X334646D01*
Y106102D01*
X331102D01*
Y102559D01*
G37*
G54D15*X335937Y40096D03*
X331169Y95705D03*
G54D13*G36*
X335827Y17913D02*X339370D01*
Y21457D01*
X335827D01*
Y17913D01*
G37*
G36*
X388976D02*X392520D01*
Y21457D01*
X388976D01*
Y17913D01*
G37*
G36*
X394882D02*X398425D01*
Y21457D01*
X394882D01*
Y17913D01*
G37*
G36*
X386614Y102165D02*X390157D01*
Y105709D01*
X386614D01*
Y102165D01*
G37*
G54D15*X380064Y80946D03*
X387772Y83089D03*
G54D13*G36*
X392520Y102165D02*X396063D01*
Y105709D01*
X392520D01*
Y102165D01*
G37*
G54D15*X369483Y48663D03*
X380964Y57295D03*
X320762Y61621D03*
X317515Y86985D03*
G54D16*X320472Y115059D02*X325197D01*
X356693Y124902D02*X361417D01*
X356693Y122343D02*X361417D01*
X356693Y117224D02*X361417D01*
X356693Y132579D02*X361417D01*
X356693Y130020D02*X361417D01*
X356693Y119783D02*X361417D01*
X356693Y114665D02*X361417D01*
X356693Y112106D02*X361417D01*
X356693Y109547D02*X361417D01*
G54D13*G36*
X355906Y138484D02*Y136909D01*
X362205D01*
Y138484D01*
X355906D01*
G37*
G54D16*X356693Y135138D02*X361417D01*
X356693Y127461D02*X361417D01*
X320472Y125295D02*X325197D01*
X320472Y127854D02*X325197D01*
X320472Y130413D02*X325197D01*
X320472Y132972D02*X325197D01*
X320472Y117618D02*X325197D01*
X320472Y120177D02*X325197D01*
X320472Y122736D02*X325197D01*
G54D15*X312120D03*
X316453Y117618D03*
G54D16*X320472Y135531D02*X325197D01*
G54D15*X316819Y133784D03*
G54D16*X320472Y138091D02*X325197D01*
G54D13*G36*
X317323Y145866D02*X320866D01*
Y149409D01*
X317323D01*
Y145866D01*
G37*
G36*
X323228D02*X326772D01*
Y149409D01*
X323228D01*
Y145866D01*
G37*
G54D12*X582677Y326772D03*
G54D13*G36*
X566457Y257283D02*X573150D01*
Y250591D01*
X566457D01*
Y257283D01*
G37*
G54D14*X569803Y243937D03*
X579803Y253937D03*
Y243937D03*
X569803Y233937D03*
Y223937D03*
Y213937D03*
Y203937D03*
Y193937D03*
Y183937D03*
Y173937D03*
Y163937D03*
Y153937D03*
Y143937D03*
Y133937D03*
Y123937D03*
Y113937D03*
Y103937D03*
X579803Y113937D03*
Y103937D03*
G54D12*X582677Y27559D03*
G54D14*X569803Y93937D03*
Y83937D03*
X579803Y93937D03*
Y83937D03*
G54D15*X590103Y75060D03*
G54D14*X579803Y143937D03*
Y133937D03*
Y123937D03*
Y173937D03*
Y163937D03*
Y153937D03*
Y203937D03*
Y193937D03*
Y183937D03*
Y233937D03*
Y223937D03*
Y213937D03*
G54D15*X559318Y88881D03*
X550362Y116395D03*
X559800Y207507D03*
X557078Y198067D03*
X555250Y225689D03*
X555910Y73625D03*
X553650Y173270D03*
X562089Y166509D03*
X561298Y185365D03*
G54D14*X202461Y264409D03*
X212461D03*
X222461D03*
X299665Y264291D03*
X289665D03*
X279665D03*
G54D13*G36*
X306319Y267638D02*X313012D01*
Y260945D01*
X306319D01*
Y267638D01*
G37*
G36*
X323937Y267441D02*X330630D01*
Y260748D01*
X323937D01*
Y267441D01*
G37*
G54D14*X337283Y264094D03*
X347283D03*
X357283D03*
X367283D03*
X377283D03*
X387283D03*
X397283D03*
G54D13*G36*
X425354Y268386D02*X432047D01*
Y261693D01*
X425354D01*
Y268386D01*
G37*
G54D14*X428701Y255039D03*
Y245039D03*
Y235039D03*
Y225039D03*
Y215039D03*
Y205039D03*
G54D15*X413493Y208636D03*
X415445Y203707D03*
G54D14*X428701Y195039D03*
Y185039D03*
Y175039D03*
Y165039D03*
Y155039D03*
Y145039D03*
Y135039D03*
Y125039D03*
Y115039D03*
Y105039D03*
Y95039D03*
X269665Y264291D03*
X438701Y265039D03*
Y255039D03*
Y245039D03*
Y235039D03*
Y225039D03*
Y215039D03*
Y205039D03*
G54D13*G36*
X481496Y204921D02*X485039D01*
Y208465D01*
X481496D01*
Y204921D01*
G37*
G36*
X487402D02*X490945D01*
Y208465D01*
X487402D01*
Y204921D01*
G37*
G54D15*X472191Y204788D03*
X450622Y210394D03*
G54D13*G36*
X505118Y204921D02*X508661D01*
Y208465D01*
X505118D01*
Y204921D01*
G37*
G36*
X511024D02*X514567D01*
Y208465D01*
X511024D01*
Y204921D01*
G37*
G36*
X513386Y208071D02*X516929D01*
Y211614D01*
X513386D01*
Y208071D01*
G37*
G36*
X519291D02*X522835D01*
Y211614D01*
X519291D01*
Y208071D01*
G37*
G54D15*X493770Y209400D03*
X476900Y213061D03*
X458222Y215188D03*
X504036Y222247D03*
X478569Y228447D03*
X458803Y229405D03*
X499446Y201427D03*
X505984Y212993D03*
X516995Y216333D03*
G54D14*X438701Y195039D03*
G54D13*G36*
X482283Y197933D02*Y196358D01*
X488583D01*
Y197933D01*
X482283D01*
G37*
G54D16*X483071Y194587D02*X487795D01*
G54D15*X445039Y195043D03*
G54D16*X483071Y192028D02*X487795D01*
X483071Y189469D02*X487795D01*
X483071Y186909D02*X487795D01*
X483071Y184350D02*X487795D01*
X483071Y181791D02*X487795D01*
G54D15*X483678Y200798D03*
X450770Y200709D03*
X543826Y194191D03*
X491428Y194057D03*
G54D14*X438701Y185039D03*
Y175039D03*
Y165039D03*
Y155039D03*
G54D15*X445148Y164144D03*
X456554Y152628D03*
X459904Y165732D03*
G54D16*X483071Y179232D02*X487795D01*
X483071Y176673D02*X487795D01*
X483071Y174114D02*X487795D01*
X483071Y171555D02*X487795D01*
G54D15*X468899Y158069D03*
X469485Y150668D03*
G54D16*X483071Y168996D02*X487795D01*
G54D13*G36*
X482283Y158858D02*X485827D01*
Y162402D01*
X482283D01*
Y158858D01*
G37*
G54D15*X484036Y165299D03*
G54D13*G36*
X483071Y151870D02*Y150295D01*
X489370D01*
Y151870D01*
X483071D01*
G37*
G54D16*X483858Y148524D02*X488583D01*
G54D13*G36*
X488189Y158858D02*X491732D01*
Y162402D01*
X488189D01*
Y158858D01*
G37*
G54D15*X492637Y155741D03*
G54D16*X483858Y145965D02*X488583D01*
X483858Y143406D02*X488583D01*
X483858Y140846D02*X488583D01*
X483858Y138287D02*X488583D01*
G54D15*X480233Y148524D03*
X492203Y144691D03*
G54D16*X483858Y135728D02*X488583D01*
X483858Y133169D02*X488583D01*
X483858Y130610D02*X488583D01*
X483858Y128051D02*X488583D01*
X483858Y125492D02*X488583D01*
X483858Y122933D02*X488583D01*
X508268Y168996D02*X512992D01*
X509055Y145965D02*X513780D01*
X509055Y148524D02*X513780D01*
X509055Y151083D02*X513780D01*
X509055Y138287D02*X513780D01*
X509055Y140846D02*X513780D01*
X509055Y143406D02*X513780D01*
G54D13*G36*
X505906Y158858D02*X509449D01*
Y162402D01*
X505906D01*
Y158858D01*
G37*
G36*
X511811D02*X515354D01*
Y162402D01*
X511811D01*
Y158858D01*
G37*
G36*
X512992Y161614D02*X516535D01*
Y165157D01*
X512992D01*
Y161614D01*
G37*
G54D16*X509055Y130610D02*X513780D01*
X509055Y133169D02*X513780D01*
X509055Y135728D02*X513780D01*
X509055Y122933D02*X513780D01*
X509055Y125492D02*X513780D01*
X509055Y128051D02*X513780D01*
X508268Y171555D02*X512992D01*
G54D13*G36*
X518898Y161614D02*X522441D01*
Y165157D01*
X518898D01*
Y161614D01*
G37*
G54D15*X502457Y160730D03*
X526750Y149028D03*
X522082Y149504D03*
X529651Y167097D03*
X529633Y160193D03*
X520991Y154130D03*
G54D16*X508268Y181791D02*X512992D01*
X508268Y184350D02*X512992D01*
X508268Y186909D02*X512992D01*
X508268Y189469D02*X512992D01*
X508268Y174114D02*X512992D01*
X508268Y176673D02*X512992D01*
X508268Y179232D02*X512992D01*
X508268Y192028D02*X512992D01*
X508268Y194587D02*X512992D01*
X508268Y197146D02*X512992D01*
G54D15*X516802Y190269D03*
G54D14*X438701Y145039D03*
Y135039D03*
Y125039D03*
Y115039D03*
Y105039D03*
Y95039D03*
G54D15*X451741Y99342D03*
X446067Y92419D03*
X458279Y88929D03*
G54D13*G36*
X485039Y99114D02*Y97539D01*
X491339D01*
Y99114D01*
X485039D01*
G37*
G36*
X484252Y106102D02*X487795D01*
Y109646D01*
X484252D01*
Y106102D01*
G37*
G36*
X490157D02*X493701D01*
Y109646D01*
X490157D01*
Y106102D01*
G37*
G54D16*X511024Y98327D02*X515748D01*
G54D13*G36*
X507874Y106102D02*X511417D01*
Y109646D01*
X507874D01*
Y106102D01*
G37*
G36*
X513780D02*X517323D01*
Y109646D01*
X513780D01*
Y106102D01*
G37*
G36*
Y115551D02*X517323D01*
Y119094D01*
X513780D01*
Y115551D01*
G37*
G36*
X519685D02*X523228D01*
Y119094D01*
X519685D01*
Y115551D01*
G37*
G54D15*X497686Y117323D03*
X505835Y121013D03*
X495398Y103569D03*
X502902Y106057D03*
X504875Y98572D03*
G54D16*X485827Y95768D02*X490551D01*
X485827Y93209D02*X490551D01*
X485827Y90650D02*X490551D01*
X485827Y88091D02*X490551D01*
X485827Y85531D02*X490551D01*
X485827Y82972D02*X490551D01*
X485827Y80413D02*X490551D01*
G54D15*X479297Y78655D03*
G54D16*X485827Y77854D02*X490551D01*
X511024Y80413D02*X515748D01*
X511024Y82972D02*X515748D01*
G54D15*X494207Y80413D03*
G54D16*X511024Y77854D02*X515748D01*
X511024Y85531D02*X515748D01*
X511024Y88091D02*X515748D01*
X511024Y90650D02*X515748D01*
X511024Y93209D02*X515748D01*
X511024Y95768D02*X515748D01*
G54D15*X494201Y90650D03*
G54D16*X485827Y75295D02*X490551D01*
X511024D02*X515748D01*
G54D15*X507387D03*
X474737D03*
G54D16*X485827Y72736D02*X490551D01*
X511024D02*X515748D01*
X485827Y70177D02*X490551D01*
X511024D02*X515748D01*
G54D14*X259665Y264291D03*
G54D13*G36*
X482677Y244390D02*Y242815D01*
X488976D01*
Y244390D01*
X482677D01*
G37*
G54D16*X483465Y241043D02*X488189D01*
G54D13*G36*
X481890Y251378D02*X485433D01*
Y254921D01*
X481890D01*
Y251378D01*
G37*
G54D16*X483465Y238484D02*X488189D01*
X483465Y235925D02*X488189D01*
X483465Y233366D02*X488189D01*
X483465Y230807D02*X488189D01*
X483465Y228248D02*X488189D01*
X508661Y230807D02*X513386D01*
X508661Y233366D02*X513386D01*
X508661Y228248D02*X513386D01*
X508661Y235925D02*X513386D01*
X508661Y238484D02*X513386D01*
X508661Y241043D02*X513386D01*
X508661Y243602D02*X513386D01*
G54D13*G36*
X505512Y251378D02*X509055D01*
Y254921D01*
X505512D01*
Y251378D01*
G37*
G36*
X511417D02*X514961D01*
Y254921D01*
X511417D01*
Y251378D01*
G37*
G36*
X487795D02*X491339D01*
Y254921D01*
X487795D01*
Y251378D01*
G37*
G54D16*X483465Y225689D02*X488189D01*
X508661D02*X513386D01*
X483465Y223130D02*X488189D01*
X508661D02*X513386D01*
X483465Y220571D02*X488189D01*
X483465Y218012D02*X488189D01*
X483465Y215453D02*X488189D01*
X508661D02*X513386D01*
X508661Y218012D02*X513386D01*
X508661Y220571D02*X513386D01*
G54D14*X249665Y264291D03*
X239665D03*
X199724Y74764D03*
X209724D03*
X200000Y22953D03*
X210000D03*
X219724Y74764D03*
X220000Y22953D03*
X230000D03*
X240000D03*
X250000D03*
X260000D03*
X270000D03*
X280000D03*
X290000D03*
X300000D03*
G54D13*G36*
X345591Y78110D02*X352283D01*
Y71417D01*
X345591D01*
Y78110D01*
G37*
G54D14*X358937Y74764D03*
X368937D03*
X378937D03*
X388937D03*
X398937D03*
X408937D03*
X418937D03*
G54D15*X414266Y27806D03*
G54D13*G36*
X515748Y62795D02*X519291D01*
Y66339D01*
X515748D01*
Y62795D01*
G37*
G54D15*X488468Y61327D03*
X481591Y71350D03*
G54D13*G36*
X521654Y62795D02*X525197D01*
Y66339D01*
X521654D01*
Y62795D01*
G37*
G54D15*X529659Y70177D03*
G54D14*X310000Y22953D03*
X320000D03*
X330000D03*
X340000D03*
X350000D03*
X360000D03*
X370000D03*
X380000D03*
X390000D03*
X400000D03*
X410000D03*
G54D13*G36*
X448031Y17913D02*X451575D01*
Y21457D01*
X448031D01*
Y17913D01*
G37*
G36*
X453937D02*X457480D01*
Y21457D01*
X453937D01*
Y17913D01*
G37*
G36*
X507087D02*X510630D01*
Y21457D01*
X507087D01*
Y17913D01*
G37*
G36*
X512992D02*X516535D01*
Y21457D01*
X512992D01*
Y17913D01*
G37*
G54D14*X229724Y74764D03*
X239724D03*
G54D13*G36*
X255906Y78110D02*X262598D01*
Y71417D01*
X255906D01*
Y78110D01*
G37*
G54D14*X269252Y74764D03*
X279252D03*
X289252D03*
X299252D03*
X309252D03*
X319252D03*
X329252D03*
G54D17*G54D18*G54D19*G54D18*G54D19*G54D18*G54D19*G54D17*G54D18*G54D19*G54D18*G54D19*G54D18*G54D19*G54D18*G54D19*G54D18*G54D19*G54D18*G54D19*G54D18*G54D19*G54D18*G54D19*G54D18*G54D19*G54D17*G54D18*G54D17*G54D18*G54D19*G54D18*G54D19*G54D18*G54D19*G54D18*G54D19*G54D18*G54D19*G54D18*G54D19*G54D18*G54D19*G54D18*G54D19*G54D18*M02*
