M48
INCH
T24C0.039
T23C0.126
%
T24
X013246Y026441
X014246Y026441
X015246Y026441
X015362Y032744
X015748Y005906
X016000Y002295
X016246Y026441
X016362Y032744
X016748Y005906
X016972Y007476
X017000Y002295
X017246Y026441
X017362Y032744
X017748Y005906
X017972Y007476
X018000Y002295
X018246Y026441
X018362Y032744
X018748Y005906
X018972Y007476
X019000Y002295
X019246Y026441
X019362Y032744
X019748Y005906
X019972Y007476
X020000Y002295
X020246Y026441
X020362Y032744
X020748Y005906
X020972Y007476
X021000Y002295
X021246Y026441
X021362Y032744
X021748Y005906
X021972Y007476
X022000Y002295
X022246Y026441
X022362Y032744
X022748Y005906
X022972Y007476
X023000Y002295
X023362Y032744
X023748Y005906
X023967Y026429
X023972Y007476
X024000Y002295
X024362Y032744
X024748Y005906
X024967Y026429
X025000Y002295
X025362Y032744
X025925Y007476
X025967Y026429
X026000Y002295
X026362Y032744
X026925Y007476
X026967Y026429
X027000Y002295
X027362Y032744
X027925Y007476
X027967Y026429
X028000Y002295
X028362Y032744
X028925Y007476
X028967Y026429
X029000Y002295
X029362Y032744
X029925Y007476
X029967Y026429
X030000Y002295
X030362Y032744
X030925Y007476
X030967Y026429
X031000Y002295
X031362Y032744
X031925Y007476
X032000Y002295
X032362Y032744
X032728Y026409
X032925Y007476
X033000Y002295
X033362Y032744
X033728Y026409
X034000Y002295
X034362Y032744
X034728Y026409
X034894Y007476
X035000Y002295
X035362Y032744
X035728Y026409
X035894Y007476
X036000Y002295
X036362Y032744
X036728Y026409
X036894Y007476
X037000Y002295
X037362Y032744
X037728Y026409
X037894Y007476
X038000Y002295
X038362Y032744
X038728Y026409
X038894Y007476
X039000Y002295
X039362Y032744
X039728Y026409
X039894Y007476
X040000Y002295
X040362Y032744
X040894Y007476
X041000Y002295
X041894Y007476
X042870Y026504
X042870Y025504
X042870Y024504
X042870Y023504
X042870Y022504
X042870Y021504
X042870Y020504
X042870Y019504
X042870Y018504
X042870Y017504
X042870Y016504
X042870Y015504
X042870Y014504
X042870Y013504
X042870Y012504
X042870Y011504
X042870Y010504
X042870Y009504
X043870Y026504
X043870Y025504
X043870Y024504
X043870Y023504
X043870Y022504
X043870Y021504
X043870Y020504
X043870Y019504
X043870Y018504
X043870Y017504
X043870Y016504
X043870Y015504
X043870Y014504
X043870Y013504
X043870Y012504
X043870Y011504
X043870Y010504
X043870Y009504
X056980Y025394
X056980Y024394
X056980Y023394
X056980Y022394
X056980Y021394
X056980Y020394
X056980Y019394
X056980Y018394
X056980Y017394
X056980Y016394
X056980Y015394
X056980Y014394
X056980Y013394
X056980Y012394
X056980Y011394
X056980Y010394
X056980Y009394
X056980Y008394
X057980Y025394
X057980Y024394
X057980Y023394
X057980Y022394
X057980Y021394
X057980Y020394
X057980Y019394
X057980Y018394
X057980Y017394
X057980Y016394
X057980Y015394
X057980Y014394
X057980Y013394
X057980Y012394
X057980Y011394
X057980Y010394
X057980Y009394
X057980Y008394
T23
X002756Y032677
X002756Y002756
X058268Y032677
X058268Y002756
M30
