G04 start of page 7 for group 0 layer_idx 7 *
G04 Title: GigaShield, top_paste *
G04 Creator: pcb-rnd 3.1.4 *
G04 CreationDate: 2026-03-08 03:29:23 UTC *
G04 For: Alex *
G04 Format: Gerber/RS-274X *
G04 PCB-Dimensions: 610236 354331 *
G04 PCB-Coordinate-Origin: lower left *
%MOIN*%
%FSLAX25Y25*%
%LNTOP_PASTE_NONE_0*%
%ADD42C,0.0157*%
%ADD41C,0.0001*%
G54D41*G36*
X166535Y308957D02*Y307382D01*
X172835D01*
Y308957D01*
X166535D01*
G37*
G36*
X165748Y315945D02*X169291D01*
Y319488D01*
X165748D01*
Y315945D01*
G37*
G54D42*X167323Y305610D02*X172047D01*
X167323Y303051D02*X172047D01*
X167323Y300492D02*X172047D01*
X167323Y297933D02*X172047D01*
X167323Y295374D02*X172047D01*
X167323Y292815D02*X172047D01*
X167323Y290256D02*X172047D01*
X167323Y287697D02*X172047D01*
X167323Y285138D02*X172047D01*
X167323Y282579D02*X172047D01*
X167323Y280020D02*X172047D01*
G54D41*G36*
X34646Y17913D02*X38189D01*
Y21457D01*
X34646D01*
Y17913D01*
G37*
G36*
X40551D02*X44094D01*
Y21457D01*
X40551D01*
Y17913D01*
G37*
G36*
X93701D02*X97244D01*
Y21457D01*
X93701D01*
Y17913D01*
G37*
G36*
X99606D02*X103150D01*
Y21457D01*
X99606D01*
Y17913D01*
G37*
G36*
X152756D02*X156299D01*
Y21457D01*
X152756D01*
Y17913D01*
G37*
G36*
X158661D02*X162205D01*
Y21457D01*
X158661D01*
Y17913D01*
G37*
G36*
X171654Y315945D02*X175197D01*
Y319488D01*
X171654D01*
Y315945D01*
G37*
G54D42*X192520Y285138D02*X197244D01*
X192520Y287697D02*X197244D01*
X192520Y290256D02*X197244D01*
X192520Y292815D02*X197244D01*
X192520Y280020D02*X197244D01*
X192520Y282579D02*X197244D01*
G54D41*G36*
Y272638D02*X200787D01*
Y276181D01*
X197244D01*
Y272638D01*
G37*
G36*
X203150D02*X206693D01*
Y276181D01*
X203150D01*
Y272638D01*
G37*
G54D42*X192520Y295374D02*X197244D01*
X192520Y297933D02*X197244D01*
X192520Y300492D02*X197244D01*
X192520Y303051D02*X197244D01*
X192520Y305610D02*X197244D01*
X192520Y308169D02*X197244D01*
G54D41*G36*
X189370Y315945D02*X192913D01*
Y319488D01*
X189370D01*
Y315945D01*
G37*
G36*
X195276D02*X198819D01*
Y319488D01*
X195276D01*
Y315945D01*
G37*
G36*
X254331Y305413D02*Y303839D01*
X260630D01*
Y305413D01*
X254331D01*
G37*
G54D42*X255118Y302067D02*X259843D01*
G54D41*G36*
X253543Y312402D02*X257087D01*
Y315945D01*
X253543D01*
Y312402D01*
G37*
G54D42*X255118Y299508D02*X259843D01*
X255118Y296949D02*X259843D01*
X255118Y294390D02*X259843D01*
X255118Y291831D02*X259843D01*
X255118Y289272D02*X259843D01*
X255118Y286713D02*X259843D01*
X255118Y284154D02*X259843D01*
X255118Y281594D02*X259843D01*
X255118Y279035D02*X259843D01*
X255118Y276476D02*X259843D01*
G54D41*G36*
X259449Y312402D02*X262992D01*
Y315945D01*
X259449D01*
Y312402D01*
G37*
G36*
X337795Y309350D02*Y307776D01*
X344094D01*
Y309350D01*
X337795D01*
G37*
G36*
X337008Y316339D02*X340551D01*
Y319882D01*
X337008D01*
Y316339D01*
G37*
G54D42*X338583Y306004D02*X343307D01*
X338583Y303445D02*X343307D01*
X338583Y300886D02*X343307D01*
X338583Y298327D02*X343307D01*
X338583Y295768D02*X343307D01*
X363780Y298327D02*X368504D01*
X363780Y300886D02*X368504D01*
X363780Y295768D02*X368504D01*
X363780Y303445D02*X368504D01*
X363780Y306004D02*X368504D01*
X363780Y308563D02*X368504D01*
G54D41*G36*
X360630Y316339D02*X364173D01*
Y319882D01*
X360630D01*
Y316339D01*
G37*
G36*
X366535D02*X370079D01*
Y319882D01*
X366535D01*
Y316339D01*
G37*
G36*
X342913D02*X346457D01*
Y319882D01*
X342913D01*
Y316339D01*
G37*
G54D42*X338583Y293209D02*X343307D01*
X363780D02*X368504D01*
X338583Y290650D02*X343307D01*
X363780D02*X368504D01*
X338583Y288091D02*X343307D01*
X338583Y285531D02*X343307D01*
X338583Y282972D02*X343307D01*
X338583Y280413D02*X343307D01*
X363780D02*X368504D01*
X363780Y282972D02*X368504D01*
X363780Y285531D02*X368504D01*
X363780Y288091D02*X368504D01*
G54D41*G36*
Y273031D02*X372047D01*
Y276575D01*
X368504D01*
Y273031D01*
G37*
G36*
X374409D02*X377953D01*
Y276575D01*
X374409D01*
Y273031D01*
G37*
G54D42*X280315Y299508D02*X285039D01*
X280315Y302067D02*X285039D01*
X280315Y304626D02*X285039D01*
G54D41*G36*
X277165Y312402D02*X280709D01*
Y315945D01*
X277165D01*
Y312402D01*
G37*
G54D42*X280315Y291831D02*X285039D01*
X280315Y294390D02*X285039D01*
X280315Y296949D02*X285039D01*
G54D41*G36*
X283071Y312402D02*X286614D01*
Y315945D01*
X283071D01*
Y312402D01*
G37*
G54D42*X280315Y284154D02*X285039D01*
X280315Y286713D02*X285039D01*
X280315Y289272D02*X285039D01*
X280315Y276476D02*X285039D01*
X280315Y279035D02*X285039D01*
X280315Y281594D02*X285039D01*
G54D41*G36*
Y269094D02*X288583D01*
Y272638D01*
X285039D01*
Y269094D01*
G37*
G36*
X290945D02*X294488D01*
Y272638D01*
X290945D01*
Y269094D01*
G37*
G36*
X293701Y145866D02*X297244D01*
Y149409D01*
X293701D01*
Y145866D01*
G37*
G36*
X299606D02*X303150D01*
Y149409D01*
X299606D01*
Y145866D01*
G37*
G36*
X294488Y138878D02*Y137303D01*
X300787D01*
Y138878D01*
X294488D01*
G37*
G54D42*X295276Y135531D02*X300000D01*
X295276Y132972D02*X300000D01*
X295276Y117618D02*X300000D01*
X295276Y115059D02*X300000D01*
X295276Y109941D02*X300000D01*
X295276Y125295D02*X300000D01*
X295276Y122736D02*X300000D01*
X295276Y112500D02*X300000D01*
G54D41*G36*
X211811Y17913D02*X215354D01*
Y21457D01*
X211811D01*
Y17913D01*
G37*
G36*
X217717D02*X221260D01*
Y21457D01*
X217717D01*
Y17913D01*
G37*
G36*
X270866D02*X274409D01*
Y21457D01*
X270866D01*
Y17913D01*
G37*
G36*
X276772D02*X280315D01*
Y21457D01*
X276772D01*
Y17913D01*
G37*
G54D42*X295276Y130413D02*X300000D01*
X295276Y127854D02*X300000D01*
X295276Y120177D02*X300000D01*
X320472Y109941D02*X325197D01*
X381890Y112106D02*X386614D01*
X381890Y114665D02*X386614D01*
X381890Y109547D02*X386614D01*
X381890Y117224D02*X386614D01*
X381890Y119783D02*X386614D01*
X381890Y122343D02*X386614D01*
X381890Y124902D02*X386614D01*
X381890Y127461D02*X386614D01*
X381890Y130020D02*X386614D01*
G54D41*G36*
X378740Y145472D02*X382283D01*
Y149016D01*
X378740D01*
Y145472D01*
G37*
G36*
X384646D02*X388189D01*
Y149016D01*
X384646D01*
Y145472D01*
G37*
G36*
X355118D02*X358661D01*
Y149016D01*
X355118D01*
Y145472D01*
G37*
G36*
X361024D02*X364567D01*
Y149016D01*
X361024D01*
Y145472D01*
G37*
G54D42*X381890Y132579D02*X386614D01*
X381890Y135138D02*X386614D01*
X381890Y137697D02*X386614D01*
X320472Y112500D02*X325197D01*
G54D41*G36*
X329921Y17913D02*X333465D01*
Y21457D01*
X329921D01*
Y17913D01*
G37*
G36*
X325197Y102559D02*X328740D01*
Y106102D01*
X325197D01*
Y102559D01*
G37*
G36*
X331102D02*X334646D01*
Y106102D01*
X331102D01*
Y102559D01*
G37*
G36*
X335827Y17913D02*X339370D01*
Y21457D01*
X335827D01*
Y17913D01*
G37*
G36*
X388976D02*X392520D01*
Y21457D01*
X388976D01*
Y17913D01*
G37*
G36*
X394882D02*X398425D01*
Y21457D01*
X394882D01*
Y17913D01*
G37*
G36*
X386614Y102165D02*X390157D01*
Y105709D01*
X386614D01*
Y102165D01*
G37*
G36*
X392520D02*X396063D01*
Y105709D01*
X392520D01*
Y102165D01*
G37*
G54D42*X320472Y115059D02*X325197D01*
X356693Y124902D02*X361417D01*
X356693Y122343D02*X361417D01*
X356693Y117224D02*X361417D01*
X356693Y132579D02*X361417D01*
X356693Y130020D02*X361417D01*
X356693Y119783D02*X361417D01*
X356693Y114665D02*X361417D01*
X356693Y112106D02*X361417D01*
X356693Y109547D02*X361417D01*
G54D41*G36*
X355906Y138484D02*Y136909D01*
X362205D01*
Y138484D01*
X355906D01*
G37*
G54D42*X356693Y135138D02*X361417D01*
X356693Y127461D02*X361417D01*
X320472Y125295D02*X325197D01*
X320472Y127854D02*X325197D01*
X320472Y130413D02*X325197D01*
X320472Y132972D02*X325197D01*
X320472Y117618D02*X325197D01*
X320472Y120177D02*X325197D01*
X320472Y122736D02*X325197D01*
X320472Y135531D02*X325197D01*
X320472Y138091D02*X325197D01*
G54D41*G36*
X317323Y145866D02*X320866D01*
Y149409D01*
X317323D01*
Y145866D01*
G37*
G36*
X323228D02*X326772D01*
Y149409D01*
X323228D01*
Y145866D01*
G37*
G36*
X481496Y204921D02*X485039D01*
Y208465D01*
X481496D01*
Y204921D01*
G37*
G36*
X487402D02*X490945D01*
Y208465D01*
X487402D01*
Y204921D01*
G37*
G36*
X505118D02*X508661D01*
Y208465D01*
X505118D01*
Y204921D01*
G37*
G36*
X511024D02*X514567D01*
Y208465D01*
X511024D01*
Y204921D01*
G37*
G36*
X513386Y208071D02*X516929D01*
Y211614D01*
X513386D01*
Y208071D01*
G37*
G36*
X519291D02*X522835D01*
Y211614D01*
X519291D01*
Y208071D01*
G37*
G36*
X482283Y197933D02*Y196358D01*
X488583D01*
Y197933D01*
X482283D01*
G37*
G54D42*X483071Y194587D02*X487795D01*
X483071Y192028D02*X487795D01*
X483071Y189469D02*X487795D01*
X483071Y186909D02*X487795D01*
X483071Y184350D02*X487795D01*
X483071Y181791D02*X487795D01*
X483071Y179232D02*X487795D01*
X483071Y176673D02*X487795D01*
X483071Y174114D02*X487795D01*
X483071Y171555D02*X487795D01*
X483071Y168996D02*X487795D01*
G54D41*G36*
X482283Y158858D02*X485827D01*
Y162402D01*
X482283D01*
Y158858D01*
G37*
G36*
X483071Y151870D02*Y150295D01*
X489370D01*
Y151870D01*
X483071D01*
G37*
G54D42*X483858Y148524D02*X488583D01*
G54D41*G36*
X488189Y158858D02*X491732D01*
Y162402D01*
X488189D01*
Y158858D01*
G37*
G54D42*X483858Y145965D02*X488583D01*
X483858Y143406D02*X488583D01*
X483858Y140846D02*X488583D01*
X483858Y138287D02*X488583D01*
X483858Y135728D02*X488583D01*
X483858Y133169D02*X488583D01*
X483858Y130610D02*X488583D01*
X483858Y128051D02*X488583D01*
X483858Y125492D02*X488583D01*
X483858Y122933D02*X488583D01*
X508268Y168996D02*X512992D01*
X509055Y145965D02*X513780D01*
X509055Y148524D02*X513780D01*
X509055Y151083D02*X513780D01*
X509055Y138287D02*X513780D01*
X509055Y140846D02*X513780D01*
X509055Y143406D02*X513780D01*
G54D41*G36*
X505906Y158858D02*X509449D01*
Y162402D01*
X505906D01*
Y158858D01*
G37*
G36*
X511811D02*X515354D01*
Y162402D01*
X511811D01*
Y158858D01*
G37*
G36*
X512992Y161614D02*X516535D01*
Y165157D01*
X512992D01*
Y161614D01*
G37*
G54D42*X509055Y130610D02*X513780D01*
X509055Y133169D02*X513780D01*
X509055Y135728D02*X513780D01*
X509055Y122933D02*X513780D01*
X509055Y125492D02*X513780D01*
X509055Y128051D02*X513780D01*
X508268Y171555D02*X512992D01*
G54D41*G36*
X518898Y161614D02*X522441D01*
Y165157D01*
X518898D01*
Y161614D01*
G37*
G54D42*X508268Y181791D02*X512992D01*
X508268Y184350D02*X512992D01*
X508268Y186909D02*X512992D01*
X508268Y189469D02*X512992D01*
X508268Y174114D02*X512992D01*
X508268Y176673D02*X512992D01*
X508268Y179232D02*X512992D01*
X508268Y192028D02*X512992D01*
X508268Y194587D02*X512992D01*
X508268Y197146D02*X512992D01*
G54D41*G36*
X485039Y99114D02*Y97539D01*
X491339D01*
Y99114D01*
X485039D01*
G37*
G36*
X484252Y106102D02*X487795D01*
Y109646D01*
X484252D01*
Y106102D01*
G37*
G36*
X490157D02*X493701D01*
Y109646D01*
X490157D01*
Y106102D01*
G37*
G54D42*X511024Y98327D02*X515748D01*
G54D41*G36*
X507874Y106102D02*X511417D01*
Y109646D01*
X507874D01*
Y106102D01*
G37*
G36*
X513780D02*X517323D01*
Y109646D01*
X513780D01*
Y106102D01*
G37*
G36*
Y115551D02*X517323D01*
Y119094D01*
X513780D01*
Y115551D01*
G37*
G36*
X519685D02*X523228D01*
Y119094D01*
X519685D01*
Y115551D01*
G37*
G54D42*X485827Y95768D02*X490551D01*
X485827Y93209D02*X490551D01*
X485827Y90650D02*X490551D01*
X485827Y88091D02*X490551D01*
X485827Y85531D02*X490551D01*
X485827Y82972D02*X490551D01*
X485827Y80413D02*X490551D01*
X485827Y77854D02*X490551D01*
X511024Y80413D02*X515748D01*
X511024Y82972D02*X515748D01*
X511024Y77854D02*X515748D01*
X511024Y85531D02*X515748D01*
X511024Y88091D02*X515748D01*
X511024Y90650D02*X515748D01*
X511024Y93209D02*X515748D01*
X511024Y95768D02*X515748D01*
X485827Y75295D02*X490551D01*
X511024D02*X515748D01*
X485827Y72736D02*X490551D01*
X511024D02*X515748D01*
X485827Y70177D02*X490551D01*
X511024D02*X515748D01*
G54D41*G36*
X482677Y244390D02*Y242815D01*
X488976D01*
Y244390D01*
X482677D01*
G37*
G54D42*X483465Y241043D02*X488189D01*
G54D41*G36*
X481890Y251378D02*X485433D01*
Y254921D01*
X481890D01*
Y251378D01*
G37*
G54D42*X483465Y238484D02*X488189D01*
X483465Y235925D02*X488189D01*
X483465Y233366D02*X488189D01*
X483465Y230807D02*X488189D01*
X483465Y228248D02*X488189D01*
X508661Y230807D02*X513386D01*
X508661Y233366D02*X513386D01*
X508661Y228248D02*X513386D01*
X508661Y235925D02*X513386D01*
X508661Y238484D02*X513386D01*
X508661Y241043D02*X513386D01*
X508661Y243602D02*X513386D01*
G54D41*G36*
X505512Y251378D02*X509055D01*
Y254921D01*
X505512D01*
Y251378D01*
G37*
G36*
X511417D02*X514961D01*
Y254921D01*
X511417D01*
Y251378D01*
G37*
G36*
X487795D02*X491339D01*
Y254921D01*
X487795D01*
Y251378D01*
G37*
G54D42*X483465Y225689D02*X488189D01*
X508661D02*X513386D01*
X483465Y223130D02*X488189D01*
X508661D02*X513386D01*
X483465Y220571D02*X488189D01*
X483465Y218012D02*X488189D01*
X483465Y215453D02*X488189D01*
X508661D02*X513386D01*
X508661Y218012D02*X513386D01*
X508661Y220571D02*X513386D01*
G54D41*G36*
X515748Y62795D02*X519291D01*
Y66339D01*
X515748D01*
Y62795D01*
G37*
G36*
X521654D02*X525197D01*
Y66339D01*
X521654D01*
Y62795D01*
G37*
G36*
X448031Y17913D02*X451575D01*
Y21457D01*
X448031D01*
Y17913D01*
G37*
G36*
X453937D02*X457480D01*
Y21457D01*
X453937D01*
Y17913D01*
G37*
G36*
X507087D02*X510630D01*
Y21457D01*
X507087D01*
Y17913D01*
G37*
G36*
X512992D02*X516535D01*
Y21457D01*
X512992D01*
Y17913D01*
G37*
M02*
