G04 start of page 4 for group 2 layer_idx 5 *
G04 Title: GigaShield, top_mask *
G04 Creator: pcb-rnd 3.1.4 *
G04 CreationDate: 2026-03-08 03:29:23 UTC *
G04 For: Alex *
G04 Format: Gerber/RS-274X *
G04 PCB-Dimensions: 610236 354331 *
G04 PCB-Coordinate-Origin: lower left *
%MOIN*%
%FSLAX25Y25*%
%LNTOP_MASK_NONE_2*%
%ADD32C,0.0197*%
%ADD31C,0.0420*%
%ADD30C,0.0709*%
%ADD29C,0.0001*%
%ADD28C,0.2008*%
G54D28*X27559Y326772D03*
G54D29*G36*
X128917Y267953D02*X136004D01*
Y260866D01*
X128917D01*
Y267953D01*
G37*
G54D30*X142461Y264409D03*
G54D29*G36*
X150079Y330984D02*X157165D01*
Y323898D01*
X150079D01*
Y330984D01*
G37*
G54D30*X152461Y264409D03*
X162461D03*
G54D31*X149296Y249835D03*
X157480Y260523D03*
G54D29*G36*
X166181Y78307D02*X173268D01*
Y71220D01*
X166181D01*
Y78307D01*
G37*
G54D31*X128684Y150531D03*
X126264Y169583D03*
X149296Y174256D03*
X129114Y161913D03*
G54D30*X163622Y327441D03*
G54D29*G36*
X166339Y309154D02*Y307185D01*
X173031D01*
Y309154D01*
X166339D01*
G37*
G36*
Y316535D02*X168701D01*
Y318898D01*
X166339D01*
Y316535D01*
G37*
G54D31*X169265Y313083D03*
G54D32*X167323Y305610D02*X172047D01*
X167323Y303051D02*X172047D01*
X167323Y300492D02*X172047D01*
X167323Y297933D02*X172047D01*
X167323Y295374D02*X172047D01*
X167323Y292815D02*X172047D01*
X167323Y290256D02*X172047D01*
X167323Y287697D02*X172047D01*
X167323Y285138D02*X172047D01*
X167323Y282579D02*X172047D01*
X167323Y280020D02*X172047D01*
G54D31*X169720Y273856D03*
X159531Y289817D03*
X159544Y285155D03*
X159133Y296431D03*
X158693Y301038D03*
G54D28*X27559Y27559D03*
G54D29*G36*
X35236Y18504D02*X37598D01*
Y20866D01*
X35236D01*
Y18504D01*
G37*
G36*
X41142D02*X43504D01*
Y20866D01*
X41142D01*
Y18504D01*
G37*
G36*
X94291D02*X96654D01*
Y20866D01*
X94291D01*
Y18504D01*
G37*
G36*
X100197D02*X102559D01*
Y20866D01*
X100197D01*
Y18504D01*
G37*
G36*
X153346D02*X155709D01*
Y20866D01*
X153346D01*
Y18504D01*
G37*
G54D30*X179724Y74764D03*
G54D29*G36*
X156457Y26496D02*X163543D01*
Y19409D01*
X156457D01*
Y26496D01*
G37*
G36*
X159252Y18504D02*X161614D01*
Y20866D01*
X159252D01*
Y18504D01*
G37*
G36*
X153937Y62598D02*X161024D01*
Y55512D01*
X153937D01*
Y62598D01*
G37*
G54D30*X167480Y59055D03*
X177480D03*
X189724Y74764D03*
X170000Y22953D03*
X180000D03*
X187480Y59055D03*
X172461Y264409D03*
X173622Y327441D03*
G54D29*G36*
X172244Y316535D02*X174606D01*
Y318898D01*
X172244D01*
Y316535D01*
G37*
G54D31*X175644Y297580D03*
G54D30*X182461Y264409D03*
X183622Y327441D03*
G54D31*X179304Y277721D03*
X194760Y249835D03*
X187960Y280920D03*
G54D30*X193622Y327441D03*
X203622D03*
X213622D03*
X223622D03*
X233622D03*
X243622D03*
G54D32*X192520Y285138D02*X197244D01*
X192520Y287697D02*X197244D01*
X192520Y290256D02*X197244D01*
X192520Y292815D02*X197244D01*
G54D30*X192461Y264409D03*
G54D32*X192520Y280020D02*X197244D01*
X192520Y282579D02*X197244D01*
G54D29*G36*
X197835Y273228D02*X200197D01*
Y275591D01*
X197835D01*
Y273228D01*
G37*
G36*
X203740D02*X206102D01*
Y275591D01*
X203740D01*
Y273228D01*
G37*
G54D31*X215713Y272828D03*
X212070Y256816D03*
X228465Y246966D03*
G54D32*X192520Y295374D02*X197244D01*
X192520Y297933D02*X197244D01*
G54D31*X200861Y297588D03*
G54D32*X192520Y300492D02*X197244D01*
G54D31*X188921Y302978D03*
G54D32*X192520Y303051D02*X197244D01*
X192520Y305610D02*X197244D01*
X192520Y308169D02*X197244D01*
G54D29*G36*
X189961Y316535D02*X192323D01*
Y318898D01*
X189961D01*
Y316535D01*
G37*
G36*
X195866D02*X198228D01*
Y318898D01*
X195866D01*
Y316535D01*
G37*
G54D31*X200907Y304331D03*
G54D30*X253622Y327441D03*
G54D29*G36*
X254134Y305610D02*Y303642D01*
X260827D01*
Y305610D01*
X254134D01*
G37*
G54D32*X255118Y302067D02*X259843D01*
G54D29*G36*
X254134Y312992D02*X256496D01*
Y315354D01*
X254134D01*
Y312992D01*
G37*
G54D32*X255118Y299508D02*X259843D01*
G54D31*X242820Y294390D03*
X251335Y299508D03*
X246500Y301601D03*
G54D32*X255118Y296949D02*X259843D01*
X255118Y294390D02*X259843D01*
X255118Y291831D02*X259843D01*
G54D31*X242772Y304563D03*
G54D32*X255118Y289272D02*X259843D01*
X255118Y286713D02*X259843D01*
G54D31*X251141Y287028D03*
G54D32*X255118Y284154D02*X259843D01*
X255118Y281594D02*X259843D01*
X255118Y279035D02*X259843D01*
X255118Y276476D02*X259843D01*
G54D31*X251234Y281594D03*
X251281Y272925D03*
G54D30*X263622Y327441D03*
G54D29*G36*
X260039Y312992D02*X262402D01*
Y315354D01*
X260039D01*
Y312992D01*
G37*
G54D31*X271291Y314262D03*
X287414Y307417D03*
X271776Y319489D03*
G54D29*G36*
X337598Y309547D02*Y307579D01*
X344291D01*
Y309547D01*
X337598D01*
G37*
G36*
Y316929D02*X339961D01*
Y319291D01*
X337598D01*
Y316929D01*
G37*
G54D31*X339609Y322723D03*
X334876Y300886D03*
X309123Y311959D03*
X260044Y322064D03*
X269986Y300669D03*
X330125Y319211D03*
X330163Y314533D03*
G54D32*X338583Y306004D02*X343307D01*
X338583Y303445D02*X343307D01*
X338583Y300886D02*X343307D01*
X338583Y298327D02*X343307D01*
X338583Y295768D02*X343307D01*
X363780Y298327D02*X368504D01*
X363780Y300886D02*X368504D01*
G54D31*X352192Y297174D03*
X347012Y298327D03*
G54D32*X363780Y295768D02*X368504D01*
X363780Y303445D02*X368504D01*
X363780Y306004D02*X368504D01*
X363780Y308563D02*X368504D01*
G54D29*G36*
X361220Y316929D02*X363583D01*
Y319291D01*
X361220D01*
Y316929D01*
G37*
G54D31*X361962Y313518D03*
X357355Y313088D03*
G54D29*G36*
X367126Y316929D02*X369488D01*
Y319291D01*
X367126D01*
Y316929D01*
G37*
G54D31*X368341Y312181D03*
G54D29*G36*
X343504Y316929D02*X345866D01*
Y319291D01*
X343504D01*
Y316929D01*
G37*
G54D31*X343637Y312240D03*
X358622Y321870D03*
G54D32*X338583Y293209D02*X343307D01*
X363780D02*X368504D01*
G54D31*X371964Y235557D03*
X365622Y246696D03*
X363643Y238380D03*
X264596Y284029D03*
X265140Y279383D03*
X263446Y291209D03*
G54D32*X338583Y290650D02*X343307D01*
X363780D02*X368504D01*
G54D31*X309123Y289340D03*
X316966Y292792D03*
X349035Y290650D03*
X352485Y285628D03*
G54D32*X338583Y288091D02*X343307D01*
X338583Y285531D02*X343307D01*
X338583Y282972D02*X343307D01*
X338583Y280413D02*X343307D01*
X363780D02*X368504D01*
X363780Y282972D02*X368504D01*
X363780Y285531D02*X368504D01*
X363780Y288091D02*X368504D01*
G54D29*G36*
X369094Y273622D02*X371457D01*
Y275984D01*
X369094D01*
Y273622D01*
G37*
G36*
X375000D02*X377362D01*
Y275984D01*
X375000D01*
Y273622D01*
G37*
G54D31*X406644Y276988D03*
G54D30*X273622Y327441D03*
G54D32*X280315Y299508D02*X285039D01*
X280315Y302067D02*X285039D01*
X280315Y304626D02*X285039D01*
G54D29*G36*
X277756Y312992D02*X280118D01*
Y315354D01*
X277756D01*
Y312992D01*
G37*
G54D32*X280315Y291831D02*X285039D01*
X280315Y294390D02*X285039D01*
X280315Y296949D02*X285039D01*
G54D29*G36*
X283661Y312992D02*X286024D01*
Y315354D01*
X283661D01*
Y312992D01*
G37*
G54D32*X280315Y284154D02*X285039D01*
X280315Y286713D02*X285039D01*
X280315Y289272D02*X285039D01*
X280315Y276476D02*X285039D01*
X280315Y279035D02*X285039D01*
X280315Y281594D02*X285039D01*
G54D29*G36*
X285630Y269685D02*X287992D01*
Y272047D01*
X285630D01*
Y269685D01*
G37*
G36*
X291535D02*X293898D01*
Y272047D01*
X291535D01*
Y269685D01*
G37*
G54D31*X299806Y270866D03*
G54D30*X283622Y327441D03*
X293622D03*
X303622D03*
X313622D03*
X323622D03*
X333622D03*
X343622D03*
X353622D03*
X363622D03*
X373622D03*
X383622D03*
X393622D03*
X403622D03*
G54D29*G36*
X294291Y146457D02*X296654D01*
Y148819D01*
X294291D01*
Y146457D01*
G37*
G36*
X300197D02*X302559D01*
Y148819D01*
X300197D01*
Y146457D01*
G37*
G54D31*X286209Y160411D03*
X291347Y151240D03*
G54D29*G36*
X294291Y139075D02*Y137106D01*
X300984D01*
Y139075D01*
X294291D01*
G37*
G54D32*X295276Y135531D02*X300000D01*
X295276Y132972D02*X300000D01*
G54D31*X266530Y169583D03*
X272849Y174256D03*
X299015Y162364D03*
G54D30*X190000Y22953D03*
X197480Y59055D03*
X207480D03*
X217480D03*
G54D32*X295276Y117618D02*X300000D01*
X295276Y115059D02*X300000D01*
X295276Y109941D02*X300000D01*
G54D30*X227480Y59055D03*
G54D31*X225400Y48352D03*
G54D30*X237480Y59055D03*
X247480D03*
G54D31*X263459Y51659D03*
X298876Y53655D03*
X288333Y43152D03*
G54D32*X295276Y125295D02*X300000D01*
X295276Y122736D02*X300000D01*
X295276Y112500D02*X300000D01*
G54D29*G36*
X212402Y18504D02*X214764D01*
Y20866D01*
X212402D01*
Y18504D01*
G37*
G36*
X218307D02*X220669D01*
Y20866D01*
X218307D01*
Y18504D01*
G37*
G36*
X271457D02*X273819D01*
Y20866D01*
X271457D01*
Y18504D01*
G37*
G36*
X277362D02*X279724D01*
Y20866D01*
X277362D01*
Y18504D01*
G37*
G54D32*X295276Y130413D02*X300000D01*
X295276Y127854D02*X300000D01*
X295276Y120177D02*X300000D01*
G54D31*X305798Y90174D03*
X307232Y109025D03*
G54D32*X320472Y109941D02*X325197D01*
X381890Y112106D02*X386614D01*
X381890Y114665D02*X386614D01*
G54D31*X369676Y111274D03*
G54D32*X381890Y109547D02*X386614D01*
X381890Y117224D02*X386614D01*
X381890Y119783D02*X386614D01*
X381890Y122343D02*X386614D01*
X381890Y124902D02*X386614D01*
G54D31*X368708Y123126D03*
X352841Y119747D03*
X365038Y117444D03*
X390328Y119906D03*
G54D32*X381890Y127461D02*X386614D01*
G54D31*X378257Y128731D03*
X365134Y129178D03*
G54D32*X381890Y130020D02*X386614D01*
G54D31*X338131Y133430D03*
X352919Y130519D03*
G54D29*G36*
X379331Y146063D02*X381693D01*
Y148425D01*
X379331D01*
Y146063D01*
G37*
G36*
X385236D02*X387598D01*
Y148425D01*
X385236D01*
Y146063D01*
G37*
G36*
X355709D02*X358071D01*
Y148425D01*
X355709D01*
Y146063D01*
G37*
G36*
X361614D02*X363976D01*
Y148425D01*
X361614D01*
Y146063D01*
G37*
G54D32*X381890Y132579D02*X386614D01*
X381890Y135138D02*X386614D01*
X381890Y137697D02*X386614D01*
G54D31*X378716Y141255D03*
X393308Y138563D03*
X367570Y168211D03*
X376292Y179326D03*
X363642Y179185D03*
X352571Y184811D03*
X387050Y185530D03*
X354572Y151843D03*
G54D32*X320472Y112500D02*X325197D01*
G54D29*G36*
X330512Y18504D02*X332874D01*
Y20866D01*
X330512D01*
Y18504D01*
G37*
G36*
X325787Y103150D02*X328150D01*
Y105512D01*
X325787D01*
Y103150D01*
G37*
G36*
X331693D02*X334055D01*
Y105512D01*
X331693D01*
Y103150D01*
G37*
G54D31*X335937Y40096D03*
X331169Y95705D03*
G54D29*G36*
X336417Y18504D02*X338780D01*
Y20866D01*
X336417D01*
Y18504D01*
G37*
G36*
X389567D02*X391929D01*
Y20866D01*
X389567D01*
Y18504D01*
G37*
G36*
X395472D02*X397835D01*
Y20866D01*
X395472D01*
Y18504D01*
G37*
G36*
X387205Y102756D02*X389567D01*
Y105118D01*
X387205D01*
Y102756D01*
G37*
G54D31*X380064Y80946D03*
X387772Y83089D03*
G54D29*G36*
X393110Y102756D02*X395472D01*
Y105118D01*
X393110D01*
Y102756D01*
G37*
G54D31*X369483Y48663D03*
X380964Y57295D03*
X320762Y61621D03*
X317515Y86985D03*
G54D32*X320472Y115059D02*X325197D01*
X356693Y124902D02*X361417D01*
X356693Y122343D02*X361417D01*
X356693Y117224D02*X361417D01*
X356693Y132579D02*X361417D01*
X356693Y130020D02*X361417D01*
X356693Y119783D02*X361417D01*
X356693Y114665D02*X361417D01*
X356693Y112106D02*X361417D01*
X356693Y109547D02*X361417D01*
G54D29*G36*
X355709Y138681D02*Y136713D01*
X362402D01*
Y138681D01*
X355709D01*
G37*
G54D32*X356693Y135138D02*X361417D01*
X356693Y127461D02*X361417D01*
X320472Y125295D02*X325197D01*
X320472Y127854D02*X325197D01*
X320472Y130413D02*X325197D01*
X320472Y132972D02*X325197D01*
X320472Y117618D02*X325197D01*
X320472Y120177D02*X325197D01*
X320472Y122736D02*X325197D01*
G54D31*X312120D03*
X316453Y117618D03*
G54D32*X320472Y135531D02*X325197D01*
G54D31*X316819Y133784D03*
G54D32*X320472Y138091D02*X325197D01*
G54D29*G36*
X317913Y146457D02*X320276D01*
Y148819D01*
X317913D01*
Y146457D01*
G37*
G36*
X323819D02*X326181D01*
Y148819D01*
X323819D01*
Y146457D01*
G37*
G54D28*X582677Y326772D03*
G54D29*G36*
X566260Y257480D02*X573346D01*
Y250394D01*
X566260D01*
Y257480D01*
G37*
G54D30*X569803Y243937D03*
X579803Y253937D03*
Y243937D03*
X569803Y233937D03*
Y223937D03*
Y213937D03*
Y203937D03*
Y193937D03*
Y183937D03*
Y173937D03*
Y163937D03*
Y153937D03*
Y143937D03*
Y133937D03*
Y123937D03*
Y113937D03*
Y103937D03*
X579803Y113937D03*
Y103937D03*
G54D28*X582677Y27559D03*
G54D30*X569803Y93937D03*
Y83937D03*
X579803Y93937D03*
Y83937D03*
G54D31*X590103Y75060D03*
G54D30*X579803Y143937D03*
Y133937D03*
Y123937D03*
Y173937D03*
Y163937D03*
Y153937D03*
Y203937D03*
Y193937D03*
Y183937D03*
Y233937D03*
Y223937D03*
Y213937D03*
G54D31*X559318Y88881D03*
X550362Y116395D03*
X559800Y207507D03*
X557078Y198067D03*
X555250Y225689D03*
X555910Y73625D03*
X553650Y173270D03*
X562089Y166509D03*
X561298Y185365D03*
G54D30*X202461Y264409D03*
X212461D03*
X222461D03*
X299665Y264291D03*
X289665D03*
X279665D03*
G54D29*G36*
X306122Y267835D02*X313209D01*
Y260748D01*
X306122D01*
Y267835D01*
G37*
G36*
X323740Y267638D02*X330827D01*
Y260551D01*
X323740D01*
Y267638D01*
G37*
G54D30*X337283Y264094D03*
X347283D03*
X357283D03*
X367283D03*
X377283D03*
X387283D03*
X397283D03*
G54D29*G36*
X425157Y268583D02*X432244D01*
Y261496D01*
X425157D01*
Y268583D01*
G37*
G54D30*X428701Y255039D03*
Y245039D03*
Y235039D03*
Y225039D03*
Y215039D03*
Y205039D03*
G54D31*X413493Y208636D03*
X415445Y203707D03*
G54D30*X428701Y195039D03*
Y185039D03*
Y175039D03*
Y165039D03*
Y155039D03*
Y145039D03*
Y135039D03*
Y125039D03*
Y115039D03*
Y105039D03*
Y95039D03*
X269665Y264291D03*
X438701Y265039D03*
Y255039D03*
Y245039D03*
Y235039D03*
Y225039D03*
Y215039D03*
Y205039D03*
G54D29*G36*
X482087Y205512D02*X484449D01*
Y207874D01*
X482087D01*
Y205512D01*
G37*
G36*
X487992D02*X490354D01*
Y207874D01*
X487992D01*
Y205512D01*
G37*
G54D31*X472191Y204788D03*
X450622Y210394D03*
G54D29*G36*
X505709Y205512D02*X508071D01*
Y207874D01*
X505709D01*
Y205512D01*
G37*
G36*
X511614D02*X513976D01*
Y207874D01*
X511614D01*
Y205512D01*
G37*
G36*
X513976Y208661D02*X516339D01*
Y211024D01*
X513976D01*
Y208661D01*
G37*
G36*
X519882D02*X522244D01*
Y211024D01*
X519882D01*
Y208661D01*
G37*
G54D31*X493770Y209400D03*
X476900Y213061D03*
X458222Y215188D03*
X504036Y222247D03*
X478569Y228447D03*
X458803Y229405D03*
X499446Y201427D03*
X505984Y212993D03*
X516995Y216333D03*
G54D30*X438701Y195039D03*
G54D29*G36*
X482087Y198130D02*Y196161D01*
X488780D01*
Y198130D01*
X482087D01*
G37*
G54D32*X483071Y194587D02*X487795D01*
G54D31*X445039Y195043D03*
G54D32*X483071Y192028D02*X487795D01*
X483071Y189469D02*X487795D01*
X483071Y186909D02*X487795D01*
X483071Y184350D02*X487795D01*
X483071Y181791D02*X487795D01*
G54D31*X483678Y200798D03*
X450770Y200709D03*
X543826Y194191D03*
X491428Y194057D03*
G54D30*X438701Y185039D03*
Y175039D03*
Y165039D03*
Y155039D03*
G54D31*X445148Y164144D03*
X456554Y152628D03*
X459904Y165732D03*
G54D32*X483071Y179232D02*X487795D01*
X483071Y176673D02*X487795D01*
X483071Y174114D02*X487795D01*
X483071Y171555D02*X487795D01*
G54D31*X468899Y158069D03*
X469485Y150668D03*
G54D32*X483071Y168996D02*X487795D01*
G54D29*G36*
X482874Y159449D02*X485236D01*
Y161811D01*
X482874D01*
Y159449D01*
G37*
G54D31*X484036Y165299D03*
G54D29*G36*
X482874Y152067D02*Y150098D01*
X489567D01*
Y152067D01*
X482874D01*
G37*
G54D32*X483858Y148524D02*X488583D01*
G54D29*G36*
X488780Y159449D02*X491142D01*
Y161811D01*
X488780D01*
Y159449D01*
G37*
G54D31*X492637Y155741D03*
G54D32*X483858Y145965D02*X488583D01*
X483858Y143406D02*X488583D01*
X483858Y140846D02*X488583D01*
X483858Y138287D02*X488583D01*
G54D31*X480233Y148524D03*
X492203Y144691D03*
G54D32*X483858Y135728D02*X488583D01*
X483858Y133169D02*X488583D01*
X483858Y130610D02*X488583D01*
X483858Y128051D02*X488583D01*
X483858Y125492D02*X488583D01*
X483858Y122933D02*X488583D01*
X508268Y168996D02*X512992D01*
X509055Y145965D02*X513780D01*
X509055Y148524D02*X513780D01*
X509055Y151083D02*X513780D01*
X509055Y138287D02*X513780D01*
X509055Y140846D02*X513780D01*
X509055Y143406D02*X513780D01*
G54D29*G36*
X506496Y159449D02*X508858D01*
Y161811D01*
X506496D01*
Y159449D01*
G37*
G36*
X512402D02*X514764D01*
Y161811D01*
X512402D01*
Y159449D01*
G37*
G36*
X513583Y162205D02*X515945D01*
Y164567D01*
X513583D01*
Y162205D01*
G37*
G54D32*X509055Y130610D02*X513780D01*
X509055Y133169D02*X513780D01*
X509055Y135728D02*X513780D01*
X509055Y122933D02*X513780D01*
X509055Y125492D02*X513780D01*
X509055Y128051D02*X513780D01*
X508268Y171555D02*X512992D01*
G54D29*G36*
X519488Y162205D02*X521850D01*
Y164567D01*
X519488D01*
Y162205D01*
G37*
G54D31*X502457Y160730D03*
X526750Y149028D03*
X522082Y149504D03*
X529651Y167097D03*
X529633Y160193D03*
X520991Y154130D03*
G54D32*X508268Y181791D02*X512992D01*
X508268Y184350D02*X512992D01*
X508268Y186909D02*X512992D01*
X508268Y189469D02*X512992D01*
X508268Y174114D02*X512992D01*
X508268Y176673D02*X512992D01*
X508268Y179232D02*X512992D01*
X508268Y192028D02*X512992D01*
X508268Y194587D02*X512992D01*
X508268Y197146D02*X512992D01*
G54D31*X516802Y190269D03*
G54D30*X438701Y145039D03*
Y135039D03*
Y125039D03*
Y115039D03*
Y105039D03*
Y95039D03*
G54D31*X451741Y99342D03*
X446067Y92419D03*
X458279Y88929D03*
G54D29*G36*
X484843Y99311D02*Y97343D01*
X491535D01*
Y99311D01*
X484843D01*
G37*
G36*
Y106693D02*X487205D01*
Y109055D01*
X484843D01*
Y106693D01*
G37*
G36*
X490748D02*X493110D01*
Y109055D01*
X490748D01*
Y106693D01*
G37*
G54D32*X511024Y98327D02*X515748D01*
G54D29*G36*
X508465Y106693D02*X510827D01*
Y109055D01*
X508465D01*
Y106693D01*
G37*
G36*
X514370D02*X516732D01*
Y109055D01*
X514370D01*
Y106693D01*
G37*
G36*
Y116142D02*X516732D01*
Y118504D01*
X514370D01*
Y116142D01*
G37*
G36*
X520276D02*X522638D01*
Y118504D01*
X520276D01*
Y116142D01*
G37*
G54D31*X497686Y117323D03*
X505835Y121013D03*
X495398Y103569D03*
X502902Y106057D03*
X504875Y98572D03*
G54D32*X485827Y95768D02*X490551D01*
X485827Y93209D02*X490551D01*
X485827Y90650D02*X490551D01*
X485827Y88091D02*X490551D01*
X485827Y85531D02*X490551D01*
X485827Y82972D02*X490551D01*
X485827Y80413D02*X490551D01*
G54D31*X479297Y78655D03*
G54D32*X485827Y77854D02*X490551D01*
X511024Y80413D02*X515748D01*
X511024Y82972D02*X515748D01*
G54D31*X494207Y80413D03*
G54D32*X511024Y77854D02*X515748D01*
X511024Y85531D02*X515748D01*
X511024Y88091D02*X515748D01*
X511024Y90650D02*X515748D01*
X511024Y93209D02*X515748D01*
X511024Y95768D02*X515748D01*
G54D31*X494201Y90650D03*
G54D32*X485827Y75295D02*X490551D01*
X511024D02*X515748D01*
G54D31*X507387D03*
X474737D03*
G54D32*X485827Y72736D02*X490551D01*
X511024D02*X515748D01*
X485827Y70177D02*X490551D01*
X511024D02*X515748D01*
G54D30*X259665Y264291D03*
G54D29*G36*
X482480Y244587D02*Y242618D01*
X489173D01*
Y244587D01*
X482480D01*
G37*
G54D32*X483465Y241043D02*X488189D01*
G54D29*G36*
X482480Y251969D02*X484843D01*
Y254331D01*
X482480D01*
Y251969D01*
G37*
G54D32*X483465Y238484D02*X488189D01*
X483465Y235925D02*X488189D01*
X483465Y233366D02*X488189D01*
X483465Y230807D02*X488189D01*
X483465Y228248D02*X488189D01*
X508661Y230807D02*X513386D01*
X508661Y233366D02*X513386D01*
X508661Y228248D02*X513386D01*
X508661Y235925D02*X513386D01*
X508661Y238484D02*X513386D01*
X508661Y241043D02*X513386D01*
X508661Y243602D02*X513386D01*
G54D29*G36*
X506102Y251969D02*X508465D01*
Y254331D01*
X506102D01*
Y251969D01*
G37*
G36*
X512008D02*X514370D01*
Y254331D01*
X512008D01*
Y251969D01*
G37*
G36*
X488386D02*X490748D01*
Y254331D01*
X488386D01*
Y251969D01*
G37*
G54D32*X483465Y225689D02*X488189D01*
X508661D02*X513386D01*
X483465Y223130D02*X488189D01*
X508661D02*X513386D01*
X483465Y220571D02*X488189D01*
X483465Y218012D02*X488189D01*
X483465Y215453D02*X488189D01*
X508661D02*X513386D01*
X508661Y218012D02*X513386D01*
X508661Y220571D02*X513386D01*
G54D30*X249665Y264291D03*
X239665D03*
X199724Y74764D03*
X209724D03*
X200000Y22953D03*
X210000D03*
X219724Y74764D03*
X220000Y22953D03*
X230000D03*
X240000D03*
X250000D03*
X260000D03*
X270000D03*
X280000D03*
X290000D03*
X300000D03*
G54D29*G36*
X345394Y78307D02*X352480D01*
Y71220D01*
X345394D01*
Y78307D01*
G37*
G54D30*X358937Y74764D03*
X368937D03*
X378937D03*
X388937D03*
X398937D03*
X408937D03*
X418937D03*
G54D31*X414266Y27806D03*
G54D29*G36*
X516339Y63386D02*X518701D01*
Y65748D01*
X516339D01*
Y63386D01*
G37*
G54D31*X488468Y61327D03*
X481591Y71350D03*
G54D29*G36*
X522244Y63386D02*X524606D01*
Y65748D01*
X522244D01*
Y63386D01*
G37*
G54D31*X529659Y70177D03*
G54D30*X310000Y22953D03*
X320000D03*
X330000D03*
X340000D03*
X350000D03*
X360000D03*
X370000D03*
X380000D03*
X390000D03*
X400000D03*
X410000D03*
G54D29*G36*
X448622Y18504D02*X450984D01*
Y20866D01*
X448622D01*
Y18504D01*
G37*
G36*
X454528D02*X456890D01*
Y20866D01*
X454528D01*
Y18504D01*
G37*
G36*
X507677D02*X510039D01*
Y20866D01*
X507677D01*
Y18504D01*
G37*
G36*
X513583D02*X515945D01*
Y20866D01*
X513583D01*
Y18504D01*
G37*
G54D30*X229724Y74764D03*
X239724D03*
G54D29*G36*
X255709Y78307D02*X262795D01*
Y71220D01*
X255709D01*
Y78307D01*
G37*
G54D30*X269252Y74764D03*
X279252D03*
X289252D03*
X299252D03*
X309252D03*
X319252D03*
X329252D03*
M02*
